<svg width="55" height="55" viewBox="0 0 55 55" fill="none" xmlns="http://www.w3.org/2000/svg">
<path d="M18.3333 50.4167H36.6667C45.8792 50.4167 47.5292 46.7271 48.0104 42.2354L49.7292 23.9021C50.3479 18.3104 48.7438 13.75 38.9583 13.75H16.0417C6.25626 13.75 4.65209 18.3104 5.27084 23.9021L6.98959 42.2354C7.47084 46.7271 9.12084 50.4167 18.3333 50.4167Z" stroke="currentColor" stroke-width="1.5" stroke-miterlimit="10" stroke-linecap="round" stroke-linejoin="round"/>
<path d="M18.3333 13.7502V11.9168C18.3333 7.86058 18.3333 4.5835 25.6667 4.5835H29.3333C36.6667 4.5835 36.6667 7.86058 36.6667 11.9168V13.7502" stroke="currentColor" stroke-width="1.5" stroke-miterlimit="10" stroke-linecap="round" stroke-linejoin="round"/>
<path d="M32.0833 29.7917V32.0833C32.0833 32.1063 32.0833 32.1063 32.0833 32.1292C32.0833 34.6271 32.0604 36.6667 27.5 36.6667C22.9625 36.6667 22.9167 34.65 22.9167 32.1521V29.7917C22.9167 27.5 22.9167 27.5 25.2083 27.5H29.7917C32.0833 27.5 32.0833 27.5 32.0833 29.7917Z" stroke="currentColor" stroke-width="1.5" stroke-miterlimit="10" stroke-linecap="round" stroke-linejoin="round"/>
<path d="M49.6146 25.2085C44.3208 29.0585 38.2708 31.3502 32.0833 32.1293" stroke="currentColor" stroke-width="1.5" stroke-miterlimit="10" stroke-linecap="round" stroke-linejoin="round"/>
<path d="M6.00418 25.8271C11.1604 29.3563 16.9813 31.4876 22.9167 32.1521" stroke="currentColor" stroke-width="1.5" stroke-miterlimit="10" stroke-linecap="round" stroke-linejoin="round"/>
</svg>
