<svg width="24" height="18" viewBox="0 0 24 18" fill="none" xmlns="http://www.w3.org/2000/svg">
<path d="M1.65128 7.83905L15.3516 2.49635C16.704 1.93981 21.2904 0.15891 21.2904 0.15891C21.2904 0.15891 23.4072 -0.620235 23.2308 1.27197C23.172 2.05112 22.7016 4.77813 22.2312 7.72775L20.7612 16.4653C20.7612 16.4653 20.6436 17.7453 19.644 17.9679C18.6444 18.1906 16.998 17.1888 16.704 16.9662C16.4688 16.7992 12.294 14.2948 10.7652 13.0705C10.3536 12.7365 9.88324 12.0687 10.824 11.2896C12.9408 9.453 15.4692 7.17122 16.998 5.72423C17.7036 5.05639 18.4092 3.4981 15.4692 5.39031L7.17845 10.6774C7.17845 10.6774 6.23766 11.2339 4.47367 10.733C2.70968 10.2321 0.651688 9.56431 0.651688 9.56431C0.651688 9.56431 -0.759505 8.72951 1.65128 7.83905Z"/>
</svg>
