<svg width="46" height="46" viewBox="0 0 46 46" fill="none" xmlns="http://www.w3.org/2000/svg">
<path d="M38.3333 15.8125V34.5C38.3333 40.25 34.9025 42.1667 30.6667 42.1667H15.3333C11.0975 42.1667 7.66666 40.25 7.66666 34.5V15.8125C7.66666 9.58334 11.0975 8.14584 15.3333 8.14584C15.3333 9.33418 15.8124 10.4075 16.5983 11.1933C17.3841 11.9792 18.4575 12.4583 19.6458 12.4583H26.3542C28.7308 12.4583 30.6667 10.5225 30.6667 8.14584C34.9025 8.14584 38.3333 9.58334 38.3333 15.8125Z" stroke="#FF7A00" stroke-width="1.5" stroke-linecap="round" stroke-linejoin="round"/>
<path d="M30.6666 8.14584C30.6666 10.5225 28.7308 12.4583 26.3541 12.4583H19.6458C18.4575 12.4583 17.3841 11.9792 16.5983 11.1933C15.8124 10.4075 15.3333 9.33418 15.3333 8.14584C15.3333 5.76918 17.2691 3.83334 19.6458 3.83334H26.3541C27.5425 3.83334 28.6159 4.31252 29.4017 5.09835C30.1875 5.88418 30.6666 6.95751 30.6666 8.14584Z" stroke="#FF7A00" stroke-width="1.5" stroke-linecap="round" stroke-linejoin="round"/>
<path d="M15.3333 24.9167H23" stroke="#FF7A00" stroke-width="1.5" stroke-linecap="round" stroke-linejoin="round"/>
<path d="M15.3333 32.5833H30.6666" stroke="#FF7A00" stroke-width="1.5" stroke-linecap="round" stroke-linejoin="round"/>
</svg>
