<svg width="46" height="46" viewBox="0 0 46 46" fill="none" xmlns="http://www.w3.org/2000/svg">
<path d="M23 28.75C26.1756 28.75 28.75 26.1756 28.75 23C28.75 19.8244 26.1756 17.25 23 17.25C19.8244 17.25 17.25 19.8244 17.25 23C17.25 26.1756 19.8244 28.75 23 28.75Z" stroke="#FF7A00" stroke-width="1.5" stroke-miterlimit="10" stroke-linecap="round" stroke-linejoin="round"/>
<path d="M3.83331 24.6867V21.3133C3.83331 19.32 5.46248 17.6717 7.47498 17.6717C10.9441 17.6717 12.3625 15.2183 10.6183 12.2092C9.62165 10.4842 10.2158 8.24166 11.96 7.245L15.2758 5.3475C16.79 4.44666 18.745 4.98333 19.6458 6.4975L19.8566 6.86166C21.5816 9.87083 24.4183 9.87083 26.1625 6.86166L26.3733 6.4975C27.2741 4.98333 29.2291 4.44666 30.7433 5.3475L34.0591 7.245C35.8033 8.24166 36.3975 10.4842 35.4008 12.2092C33.6566 15.2183 35.075 17.6717 38.5441 17.6717C40.5375 17.6717 42.1858 19.3008 42.1858 21.3133V24.6867C42.1858 26.68 40.5566 28.3283 38.5441 28.3283C35.075 28.3283 33.6566 30.7817 35.4008 33.7908C36.3975 35.535 35.8033 37.7583 34.0591 38.755L30.7433 40.6525C29.2291 41.5533 27.2741 41.0167 26.3733 39.5025L26.1625 39.1383C24.4375 36.1292 21.6008 36.1292 19.8566 39.1383L19.6458 39.5025C18.745 41.0167 16.79 41.5533 15.2758 40.6525L11.96 38.755C10.2158 37.7583 9.62165 35.5158 10.6183 33.7908C12.3625 30.7817 10.9441 28.3283 7.47498 28.3283C5.46248 28.3283 3.83331 26.68 3.83331 24.6867Z" stroke="#FF7A00" stroke-width="1.5" stroke-miterlimit="10" stroke-linecap="round" stroke-linejoin="round"/>
</svg>
