<svg width="46" height="46" viewBox="0 0 46 46" fill="none" xmlns="http://www.w3.org/2000/svg">
<path d="M27.8875 3.83334H18.1125C14.6625 3.83334 13.8958 5.55836 13.455 7.68586L11.8833 15.1992H34.1166L32.545 7.68586C32.1041 5.55836 31.3375 3.83334 27.8875 3.83334Z" stroke="#FF7A00" stroke-width="1.5" stroke-linecap="round" stroke-linejoin="round"/>
<path d="M36.8766 27.4467C37.03 29.0759 35.7266 30.4751 34.0591 30.4751H31.4525C29.9575 30.4751 29.7466 29.8426 29.4783 29.0376L29.1908 28.2133C28.8075 27.0825 28.5583 26.3158 26.5458 26.3158H19.435C17.4416 26.3158 17.135 27.1783 16.79 28.2133L16.5025 29.0376C16.2341 29.8234 16.0233 30.4751 14.5283 30.4751H11.9216C10.2541 30.4751 8.95079 29.0759 9.10413 27.4467L9.88997 18.9751C10.0816 16.8859 10.4841 15.18 14.1258 15.18H31.855C35.4966 15.18 35.8991 16.8859 36.0908 18.9751L36.8766 27.4467Z" stroke="#FF7A00" stroke-width="1.5" stroke-linecap="round" stroke-linejoin="round"/>
<path d="M11.8833 11.0208H10.4841" stroke="#FF7A00" stroke-width="1.5" stroke-linecap="round" stroke-linejoin="round"/>
<path d="M35.5158 11.0208H34.1166" stroke="#FF7A00" stroke-width="1.5" stroke-linecap="round" stroke-linejoin="round"/>
<path d="M14.6625 20.7575H18.8217" stroke="#FF7A00" stroke-width="1.5" stroke-linecap="round" stroke-linejoin="round"/>
<path d="M27.1783 20.7575H31.3375" stroke="#FF7A00" stroke-width="1.5" stroke-linecap="round" stroke-linejoin="round"/>
<path d="M23 32.5833V34.5" stroke="#FF7A00" stroke-width="1.5" stroke-linecap="round" stroke-linejoin="round"/>
<path d="M23 40.25V42.1667" stroke="#FF7A00" stroke-width="1.5" stroke-linecap="round" stroke-linejoin="round"/>
<path d="M5.74998 34.5L3.83331 42.1667" stroke="#FF7A00" stroke-width="1.5" stroke-linecap="round" stroke-linejoin="round"/>
<path d="M40.25 34.5L42.1667 42.1667" stroke="#FF7A00" stroke-width="1.5" stroke-linecap="round" stroke-linejoin="round"/>
</svg>
