<svg width="46" height="46" viewBox="0 0 46 46" fill="none" xmlns="http://www.w3.org/2000/svg">
<path d="M41.515 20.01L39.6367 28.0217C38.0267 34.9408 34.845 37.7392 28.865 37.1642C27.9067 37.0875 26.8717 36.915 25.76 36.6467L22.54 35.88C14.5475 33.9825 12.075 30.0342 13.9534 22.0225L15.8317 13.9917C16.215 12.3625 16.675 10.9442 17.25 9.775C19.4925 5.13667 23.3067 3.89084 29.7084 5.40501L32.9092 6.15251C40.94 8.03084 43.3934 11.9983 41.515 20.01Z" stroke="#FF7A00" stroke-width="1.5" stroke-linecap="round" stroke-linejoin="round"/>
<path d="M28.865 37.1642C27.6767 37.9692 26.1817 38.64 24.3608 39.2342L21.3325 40.2308C13.7233 42.6842 9.71751 40.6333 7.24501 33.0242L4.79168 25.4533C2.33835 17.8442 4.37001 13.8192 11.9792 11.3658L15.0075 10.3692C15.7933 10.12 16.5408 9.90916 17.25 9.77499C16.675 10.9442 16.215 12.3625 15.8317 13.9917L13.9533 22.0225C12.075 30.0342 14.5475 33.9825 22.54 35.88L25.76 36.6467C26.8717 36.915 27.9067 37.0875 28.865 37.1642Z" stroke="#FF7A00" stroke-width="1.5" stroke-linecap="round" stroke-linejoin="round"/>
<path d="M24.2267 16.3492L33.5225 18.7067" stroke="#FF7A00" stroke-width="1.5" stroke-linecap="round" stroke-linejoin="round"/>
<path d="M22.3483 23.7667L27.9067 25.185" stroke="#FF7A00" stroke-width="1.5" stroke-linecap="round" stroke-linejoin="round"/>
</svg>
