<svg width="55" height="55" viewBox="0 0 55 55" fill="none" xmlns="http://www.w3.org/2000/svg">
<path d="M50.3479 42.0064C50.3479 42.8314 50.1646 43.6793 49.775 44.5043C49.3854 45.3293 48.8813 46.1085 48.2167 46.8418C47.0938 48.0793 45.8563 48.9731 44.4583 49.546C43.0833 50.1189 41.5938 50.4168 39.9896 50.4168C37.6521 50.4168 35.1542 49.8668 32.5188 48.7439C29.8833 47.621 27.2479 46.1085 24.6354 44.2064C22 42.2814 19.5021 40.1502 17.1188 37.7897C14.7583 35.4064 12.6271 32.9085 10.725 30.296C8.84584 27.6835 7.33334 25.071 6.23334 22.4814C5.13334 19.8689 4.58334 17.371 4.58334 14.9877C4.58334 13.4293 4.85834 11.9397 5.40834 10.5647C5.95834 9.16683 6.82918 7.8835 8.04376 6.73766C9.51043 5.29391 11.1146 4.5835 12.8104 4.5835C13.4521 4.5835 14.0938 4.721 14.6667 4.996C15.2625 5.271 15.7896 5.6835 16.2021 6.27933L21.5188 13.7731C21.9313 14.346 22.2292 14.8731 22.4354 15.3772C22.6417 15.8585 22.7563 16.3397 22.7563 16.7752C22.7563 17.3252 22.5958 17.8752 22.275 18.4022C21.9771 18.9293 21.5417 19.4793 20.9917 20.0293L19.25 21.8397C18.9979 22.0918 18.8833 22.3897 18.8833 22.7564C18.8833 22.9397 18.9063 23.1002 18.9521 23.2835C19.0208 23.4668 19.0896 23.6043 19.1354 23.7418C19.5479 24.4981 20.2583 25.4835 21.2667 26.6752C22.2979 27.8668 23.3979 29.0814 24.5896 30.296C25.8271 31.5106 27.0188 32.6335 28.2333 33.6647C29.425 34.6731 30.4104 35.3606 31.1896 35.7731C31.3042 35.8189 31.4417 35.8877 31.6021 35.9564C31.7854 36.0252 31.9688 36.0481 32.175 36.0481C32.5646 36.0481 32.8625 35.9106 33.1146 35.6585L34.8563 33.9397C35.4292 33.3668 35.9792 32.9314 36.5063 32.6564C37.0333 32.3356 37.5604 32.1752 38.1333 32.1752C38.5688 32.1752 39.0271 32.2668 39.5313 32.4731C40.0354 32.6793 40.5625 32.9772 41.1354 33.3668L48.7208 38.7522C49.3167 39.1647 49.7292 39.646 49.9813 40.2189C50.2104 40.7918 50.3479 41.3647 50.3479 42.0064Z" stroke="currentColor" stroke-width="2" stroke-miterlimit="10"/>
<path d="M42.3958 20.6253C42.3958 19.2503 41.3187 17.142 39.7146 15.4232C38.2479 13.842 36.3 12.6045 34.375 12.6045" stroke="currentColor" stroke-width="2" stroke-linecap="round" stroke-linejoin="round"/>
<path d="M50.4167 20.6252C50.4167 11.7564 43.2438 4.5835 34.375 4.5835" stroke="currentColor" stroke-width="2" stroke-linecap="round" stroke-linejoin="round"/>
</svg>
