<svg width="21" height="20" viewBox="0 0 21 20" fill="none" xmlns="http://www.w3.org/2000/svg">
<path d="M20.2244 9.41044C19.8844 3.61044 14.6144 -0.85955 8.54443 0.14045C4.36443 0.83045 1.01443 4.22043 0.364433 8.40043C-0.0155667 10.8204 0.484455 13.1104 1.57446 15.0004L0.684441 18.3104C0.484441 19.0604 1.17442 19.7404 1.91442 19.5304L5.17443 18.6304C6.65443 19.5004 8.38443 20.0004 10.2344 20.0004C15.8744 20.0004 20.5544 15.0304 20.2244 9.41044ZM15.1244 13.7204C15.0344 13.9004 14.9244 14.0704 14.7844 14.2304C14.5344 14.5004 14.2644 14.7004 13.9644 14.8204C13.6644 14.9504 13.3344 15.0104 12.9844 15.0104C12.4744 15.0104 11.9244 14.8905 11.3544 14.6405C10.7744 14.3905 10.2045 14.0604 9.63445 13.6504C9.05445 13.2304 8.51444 12.7604 7.99444 12.2504C7.47444 11.7304 7.01441 11.1804 6.59441 10.6104C6.18441 10.0404 5.85443 9.47043 5.61443 8.90043C5.37443 8.33043 5.25445 7.78045 5.25445 7.26045C5.25445 6.92044 5.31444 6.59044 5.43444 6.29044C5.55444 5.98044 5.74446 5.70045 6.01446 5.45045C6.33446 5.13045 6.68444 4.98045 7.05444 4.98045C7.19444 4.98045 7.33441 5.01044 7.46441 5.07044C7.59441 5.13044 7.71444 5.22044 7.80444 5.35044L8.96441 6.99043C9.05441 7.12043 9.12442 7.23043 9.16442 7.34043C9.21442 7.45043 9.23443 7.55043 9.23443 7.65043C9.23443 7.77043 9.19444 7.89045 9.12444 8.01045C9.05444 8.13045 8.96441 8.25043 8.84441 8.37043L8.46441 8.77042C8.40441 8.83043 8.38445 8.89044 8.38445 8.97044C8.38445 9.01044 8.39441 9.05043 8.40441 9.09043C8.42441 9.13043 8.43445 9.16044 8.44445 9.19044C8.53445 9.36044 8.69442 9.57042 8.91442 9.83042C9.14442 10.0904 9.38446 10.3604 9.64446 10.6204C9.91446 10.8904 10.1744 11.1304 10.4445 11.3604C10.7045 11.5804 10.9244 11.7304 11.0944 11.8204C11.1244 11.8304 11.1544 11.8504 11.1844 11.8604C11.2244 11.8804 11.2644 11.8804 11.3144 11.8804C11.4044 11.8804 11.4645 11.8504 11.5245 11.7904L11.9044 11.4104C12.0344 11.2804 12.1545 11.1904 12.2645 11.1304C12.3845 11.0604 12.4944 11.0204 12.6244 11.0204C12.7244 11.0204 12.8244 11.0404 12.9344 11.0904C13.0444 11.1404 13.1644 11.2004 13.2844 11.2904L14.9445 12.4704C15.0745 12.5604 15.1644 12.6704 15.2244 12.7904C15.2744 12.9204 15.3044 13.0404 15.3044 13.1804C15.2444 13.3504 15.2044 13.5404 15.1244 13.7204Z"/>
</svg>
