<svg width="214" height="84" viewBox="0 0 214 84" fill="none" xmlns="http://www.w3.org/2000/svg">
<g style="mix-blend-mode:luminosity">
<path d="M116.463 81.5999H121.315C135.873 80.8799 146.063 69.5999 146.063 56.1599C146.063 51.5999 145.093 47.0399 142.909 43.4399H116.463V81.5999Z" fill="#FF000F"/>
<path d="M114.036 43.2H89.7733V81.6H114.036V43.2Z" fill="#FF000F"/>
<path d="M141.454 40.7999C139.027 37.4399 135.63 34.7999 131.991 32.8799C136.358 29.7599 139.27 24.7199 139.27 19.1999C139.27 9.8399 131.748 2.3999 122.286 2.3999H116.463V40.7999H141.454Z" fill="#FF000F"/>
<path d="M114.036 2.3999H89.7733V40.7999H114.036V2.3999Z" fill="#FF000F"/>
<path d="M181.973 81.5999H186.825C201.383 80.8799 211.574 69.5999 211.574 56.1599C211.574 51.5999 210.603 47.0399 208.419 43.4399H181.973V81.5999Z" fill="#FF000F"/>
<path d="M179.546 43.2H155.283V81.6H179.546V43.2Z" fill="#FF000F"/>
<path d="M206.964 40.7999C204.537 37.4399 201.141 34.7999 197.501 32.8799C201.868 29.7599 204.78 24.7199 204.78 19.1999C204.78 9.8399 197.258 2.3999 187.796 2.3999H181.973V40.7999H206.964Z" fill="#FF000F"/>
<path d="M179.546 2.3999H155.283V40.7999H179.546V2.3999Z" fill="#FF000F"/>
<path d="M16.2562 43.2L2.4263 81.6H22.5646L28.3878 64.8H41.2472V43.2H16.2562Z" fill="#FF000F"/>
<path d="M41.2472 2.3999H30.8141L16.9841 40.7999H41.2472V2.3999Z" fill="#FF000F"/>
<path d="M43.6735 64.8H56.5329L62.356 81.6H82.4943L68.6644 43.2H43.6735V64.8Z" fill="#FF000F"/>
<path d="M67.9365 40.7999L54.1066 2.3999H43.6735V40.7999H67.9365Z" fill="#FF000F"/>
</g>
</svg>
