<svg width="210" height="100" viewBox="0 0 210 100" fill="none" xmlns="http://www.w3.org/2000/svg">
<g style="mix-blend-mode:luminosity" clip-path="url(#clip0_7_214)">
<path d="M111.359 45.565H129.093C129.059 44.2402 128.69 42.9454 128.021 41.8003C127.351 40.6552 126.403 39.6969 125.264 39.0139C122.877 37.5882 120.139 36.8516 117.357 36.8865C115.268 36.8435 113.192 37.2265 111.258 38.0121C109.742 38.6461 108.321 39.483 107.033 40.4997L101.928 33.6672C104.044 32.2769 106.319 31.1432 108.705 30.2903C111.519 29.2987 114.485 28.8073 117.47 28.8383C124.247 28.8383 129.194 30.3654 132.312 33.4196C135.243 36.1457 137.365 39.6233 138.445 43.4713C138.685 44.5569 138.87 45.6539 138.999 46.7582C139.116 47.7896 139.177 48.8268 139.179 49.8649C139.179 50.6866 139.179 51.5083 139.055 52.3525C138.967 53.2133 138.82 54.067 138.614 54.9076C137.573 59.2725 135.258 63.2323 131.962 66.2876C128.438 69.732 123.166 71.4542 116.148 71.4542C113.27 71.5155 110.404 71.0579 107.688 70.1035C105.467 69.2992 103.354 68.2256 101.397 66.9067L107.044 60.5132C107.417 60.8059 107.801 61.0648 108.174 61.3124C108.547 61.56 108.942 61.7852 109.303 61.9878C110.354 62.512 111.471 62.8908 112.624 63.1134C113.928 63.3557 115.252 63.4688 116.578 63.4511C117.289 63.4511 118.114 63.4511 119.063 63.361C120.059 63.291 121.042 63.0943 121.988 62.7757C123.693 62.2232 125.242 61.274 126.506 60.0067C128.084 58.2671 128.989 56.0246 129.059 53.6807H111.359V45.565Z" fill="black"/>
<path d="M155.603 70.6551H145.527V29.7051H158.968C164.398 29.7051 168.317 31.0258 170.727 33.6673C173.012 36.0514 174.414 39.1401 174.703 42.4246C174.747 42.6356 174.77 42.8506 174.77 43.0662V43.7078C174.843 47.6067 173.444 51.3906 170.851 54.3111C168.231 57.3128 164.27 58.8136 158.968 58.8136H155.58L155.603 70.6551ZM158.223 50.7316H159.285C159.665 50.713 160.043 50.6603 160.414 50.5741C161.536 50.3886 162.565 49.8385 163.34 49.0094C164.213 48.1315 164.65 46.5218 164.65 44.1805C164.65 41.8393 164.145 40.2446 163.136 39.3967C162.221 38.5705 161.066 38.0544 159.838 37.9221L159.002 37.832H158.223H155.603V50.7316H158.223Z" fill="black"/>
<path d="M179.13 70.6551H169.179L189.149 28.8384H190.019L209.989 70.6551H200.038L197.429 65.1171H181.751L179.13 70.6551ZM194.119 57.0014L189.601 48.6943L184.993 57.0014H194.119Z" fill="black"/>
<path d="M199.394 33.5659C199.376 32.5475 199.662 31.5469 200.217 30.6913C200.771 29.8357 201.569 29.1638 202.507 28.7612C203.446 28.3585 204.484 28.2433 205.489 28.4301C206.493 28.617 207.419 29.0975 208.149 29.8105C208.879 30.5235 209.38 31.4367 209.587 32.434C209.795 33.4313 209.7 34.4676 209.314 35.4109C208.929 36.3543 208.271 37.162 207.423 37.7315C206.576 38.3009 205.578 38.6063 204.556 38.6087C203.883 38.6221 203.214 38.5016 202.588 38.2543C201.962 38.0069 201.392 37.6376 200.912 37.168C200.431 36.6983 200.049 36.1379 199.789 35.5194C199.528 34.9008 199.394 34.2367 199.394 33.5659ZM204.556 37.7644C205.389 37.7756 206.206 37.5398 206.904 37.087C207.602 36.6343 208.15 35.9849 208.477 35.2215C208.804 34.4581 208.896 33.615 208.741 32.7994C208.586 31.9838 208.192 31.2324 207.607 30.6407C207.023 30.0491 206.276 29.6437 205.46 29.4763C204.644 29.3088 203.797 29.3868 203.025 29.7003C202.254 30.0138 201.594 30.5486 201.128 31.2369C200.663 31.9252 200.413 32.7358 200.41 33.5659C200.394 34.1161 200.489 34.664 200.69 35.1765C200.892 35.689 201.195 36.1556 201.583 36.5479C201.97 36.9403 202.433 37.2504 202.944 37.4595C203.455 37.6686 204.003 37.7723 204.556 37.7644ZM203.426 36.4812H202.545V30.673H204.804C206.194 30.673 206.871 31.1796 206.871 32.3277C206.882 32.5328 206.851 32.738 206.78 32.9308C206.709 33.1236 206.599 33.3 206.457 33.4494C206.316 33.5988 206.146 33.7181 205.957 33.8C205.768 33.882 205.564 33.9248 205.358 33.9261L207.018 36.4812H206.024L204.477 33.9598H203.46L203.426 36.4812ZM204.488 33.2169C205.245 33.2169 205.911 33.2169 205.911 32.2714C205.911 31.551 205.256 31.4159 204.635 31.4159H203.426V33.2169H204.488Z" fill="black"/>
<path d="M41.2726 56.2922C44.7847 56.2922 47.6318 53.4751 47.6318 50C47.6318 46.5249 44.7847 43.7078 41.2726 43.7078C37.7606 43.7078 34.9135 46.5249 34.9135 50C34.9135 53.4751 37.7606 56.2922 41.2726 56.2922Z" fill="#FF0000"/>
<path d="M53.9233 54.0861C56.2002 54.0861 58.046 52.2567 58.046 50.0001C58.046 47.7434 56.2002 45.9141 53.9233 45.9141C51.6464 45.9141 49.8005 47.7434 49.8005 50.0001C49.8005 52.2567 51.6464 54.0861 53.9233 54.0861Z" fill="#FF0000"/>
<path d="M41.2726 4.23233C42.4516 4.23233 43.4074 3.28489 43.4074 2.11616C43.4074 0.947439 42.4516 0 41.2726 0C40.0936 0 39.1378 0.947439 39.1378 2.11616C39.1378 3.28489 40.0936 4.23233 41.2726 4.23233Z" fill="#FF0000"/>
<path d="M41.2727 12.5281C43.0381 12.5281 44.4692 11.112 44.4692 9.36514C44.4692 7.61827 43.0381 6.20215 41.2727 6.20215C39.5073 6.20215 38.0762 7.61827 38.0762 9.36514C38.0762 11.112 39.5073 12.5281 41.2727 12.5281Z" fill="#FF0000"/>
<path d="M41.2727 23.3565C43.6681 23.3565 45.61 21.4364 45.61 19.0679C45.61 16.6994 43.6681 14.7793 41.2727 14.7793C38.8772 14.7793 36.9353 16.6994 36.9353 19.0679C36.9353 21.4364 38.8772 23.3565 41.2727 23.3565Z" fill="#FF0000"/>
<path d="M41.2726 30.5043C42.6887 30.5043 43.8366 29.3703 43.8366 27.9716C43.8366 26.5729 42.6887 25.439 41.2726 25.439C39.8566 25.439 38.7086 26.5729 38.7086 27.9716C38.7086 29.3703 39.8566 30.5043 41.2726 30.5043Z" fill="#FF0000"/>
<path d="M41.2726 100.011C42.4516 100.011 43.4074 99.0639 43.4074 97.8952C43.4074 96.7265 42.4516 95.7791 41.2726 95.7791C40.0936 95.7791 39.1378 96.7265 39.1378 97.8952C39.1378 99.0639 40.0936 100.011 41.2726 100.011Z" fill="#FF0000"/>
<path d="M41.2727 93.8091C43.0381 93.8091 44.4692 92.393 44.4692 90.6461C44.4692 88.8993 43.0381 87.4832 41.2727 87.4832C39.5073 87.4832 38.0762 88.8993 38.0762 90.6461C38.0762 92.393 39.5073 93.8091 41.2727 93.8091Z" fill="#FF0000"/>
<path d="M41.2727 85.2205C43.6681 85.2205 45.61 83.3005 45.61 80.9319C45.61 78.5634 43.6681 76.6433 41.2727 76.6433C38.8772 76.6433 36.9353 78.5634 36.9353 80.9319C36.9353 83.3005 38.8772 85.2205 41.2727 85.2205Z" fill="#FF0000"/>
<path d="M41.2726 74.5609C42.6887 74.5609 43.8366 73.427 43.8366 72.0283C43.8366 70.6295 42.6887 69.4956 41.2726 69.4956C39.8566 69.4956 38.7086 70.6295 38.7086 72.0283C38.7086 73.427 39.8566 74.5609 41.2726 74.5609Z" fill="#FF0000"/>
<path d="M28.351 3.80458C28.4844 4.20431 28.4958 4.63452 28.3836 5.04069C28.2714 5.44686 28.0408 5.81069 27.7209 6.08608C27.401 6.36147 27.0063 6.53602 26.5867 6.5876C26.1672 6.63918 25.7417 6.56546 25.3642 6.3758C24.9868 6.18614 24.6743 5.88907 24.4665 5.52225C24.2586 5.15542 24.1647 4.73536 24.1967 4.3153C24.2286 3.89523 24.385 3.49409 24.646 3.1627C24.907 2.83131 25.2609 2.5846 25.6627 2.45384C25.9281 2.36434 26.2087 2.32835 26.4882 2.34798C26.7677 2.36761 27.0405 2.44245 27.2907 2.56816C27.5409 2.69387 27.7635 2.86793 27.9455 3.0802C28.1275 3.29247 28.2654 3.53871 28.351 3.80458Z" fill="#FF0000"/>
<path d="M31.6265 10.3669C31.7565 10.7637 31.8064 11.1823 31.7733 11.5984C31.7402 12.0145 31.6248 12.42 31.4337 12.7915C31.2426 13.1629 30.9796 13.493 30.6599 13.7627C30.3401 14.0324 29.97 14.2364 29.5708 14.3628C28.7722 14.6252 27.9023 14.5645 27.1481 14.194C26.3939 13.8235 25.8159 13.1727 25.5384 12.3817C25.4084 11.9849 25.3585 11.5664 25.3916 11.1502C25.4247 10.7341 25.5402 10.3286 25.7313 9.95715C25.9224 9.58569 26.1854 9.25559 26.5051 8.9859C26.8248 8.71621 27.1949 8.51226 27.5941 8.3858C28.3927 8.12347 29.2627 8.18409 30.0169 8.5546C30.771 8.92512 31.349 9.57591 31.6265 10.3669Z" fill="#FF0000"/>
<path d="M35.738 19.2594C36.0063 20.0719 36.0266 20.9453 35.7965 21.7693C35.5664 22.5933 35.0962 23.3307 34.4453 23.8882C33.7945 24.4457 32.9923 24.7983 32.1403 24.9013C31.2883 25.0043 30.4248 24.8531 29.6591 24.4668C28.8934 24.0806 28.2599 23.4766 27.8387 22.7314C27.4176 21.9861 27.2278 21.1331 27.2933 20.2804C27.3588 19.4276 27.6768 18.6133 28.2069 17.9407C28.7369 17.2681 29.4554 16.7673 30.2712 16.5017C30.8117 16.321 31.3828 16.2492 31.9514 16.2903C32.5199 16.3315 33.0747 16.4848 33.5833 16.7413C34.0919 16.9979 34.5443 17.3527 34.9142 17.7849C35.2841 18.2172 35.5641 18.7184 35.738 19.2594Z" fill="#FF0000"/>
<path d="M36.8336 28.2642C36.9918 28.7422 37.0041 29.2563 36.869 29.7413C36.7338 30.2263 36.4574 30.6604 36.0746 30.9888C35.6918 31.3172 35.2199 31.525 34.7185 31.5859C34.2171 31.6469 33.7089 31.5583 33.2581 31.3313C32.8073 31.1043 32.4342 30.7492 32.186 30.3108C31.9378 29.8724 31.8257 29.3705 31.8639 28.8686C31.902 28.3667 32.0887 27.8874 32.4004 27.4912C32.712 27.0951 33.1345 26.8 33.6145 26.6433C33.9326 26.5379 34.2685 26.4962 34.6028 26.5207C34.9372 26.5452 35.2634 26.6354 35.5626 26.7861C35.8618 26.9367 36.1282 27.1449 36.3463 27.3986C36.5644 27.6523 36.7301 27.9465 36.8336 28.2642Z" fill="#FF0000"/>
<path d="M54.2169 96.1954C54.0856 95.7953 54.0763 95.3653 54.1902 94.96C54.3042 94.5546 54.5363 94.1921 54.8571 93.9182C55.1779 93.6443 55.5731 93.4715 55.9925 93.4215C56.4119 93.3716 56.8368 93.4467 57.2133 93.6375C57.5899 93.8283 57.9012 94.1261 58.1078 94.4933C58.3145 94.8604 58.4071 95.2804 58.3741 95.7001C58.3411 96.1198 58.1839 96.5203 57.9224 96.8509C57.661 97.1815 57.3069 97.4273 56.9051 97.5574C56.3674 97.7313 55.7824 97.6857 55.2784 97.4303C54.7744 97.175 54.3927 96.7308 54.2169 96.1954Z" fill="#FF0000"/>
<path d="M50.9187 89.6332C50.7222 89.0344 50.7083 88.391 50.8787 87.7843C51.0491 87.1776 51.3963 86.6349 51.8762 86.2248C52.3561 85.8147 52.9473 85.5556 53.5749 85.4804C54.2026 85.4051 54.8385 85.5169 55.4024 85.8018C55.9663 86.0867 56.4327 86.5318 56.7427 87.0809C57.0527 87.6299 57.1924 88.2583 57.1441 88.8864C57.0958 89.5146 56.8617 90.1144 56.4713 90.61C56.081 91.1055 55.5519 91.4746 54.9511 91.6706C54.1452 91.9303 53.269 91.8618 52.5135 91.4801C51.7581 91.0984 51.1848 90.4345 50.9187 89.6332Z" fill="#FF0000"/>
<path d="M46.8073 80.7407C46.539 79.9283 46.5187 79.0548 46.7488 78.2308C46.9789 77.4069 47.4491 76.6695 48.1 76.1119C48.7508 75.5544 49.553 75.2018 50.405 75.0988C51.257 74.9958 52.1205 75.147 52.8862 75.5333C53.6519 75.9196 54.2855 76.5236 54.7066 77.2688C55.1277 78.014 55.3175 78.867 55.252 79.7198C55.1865 80.5726 54.8685 81.3868 54.3385 82.0595C53.8084 82.7321 53.0899 83.2329 52.2741 83.4985C51.7336 83.6791 51.1625 83.751 50.5939 83.7098C50.0254 83.6687 49.4707 83.5154 48.962 83.2588C48.4534 83.0022 48.001 82.6475 47.6311 82.2152C47.2612 81.783 46.9812 81.2817 46.8073 80.7407Z" fill="#FF0000"/>
<path d="M45.7116 71.7245C45.6078 71.4074 45.5678 71.0731 45.594 70.7406C45.6201 70.4081 45.712 70.0841 45.8641 69.7871C46.0163 69.49 46.2259 69.2259 46.4807 69.0098C46.7356 68.7937 47.0308 68.6298 47.3494 68.5277C47.9935 68.3176 48.6949 68.3701 49.3003 68.6738C49.9056 68.9776 50.3656 69.5078 50.5798 70.1486C50.788 70.7919 50.7312 71.4914 50.422 72.093C50.1127 72.6946 49.5763 73.1491 48.9307 73.3566C48.2852 73.5641 47.5833 73.5075 46.9796 73.1993C46.3759 72.8911 45.9198 72.3566 45.7116 71.7132V71.7245Z" fill="#FF0000"/>
<path d="M14.5596 10.018C14.7236 10.2423 14.8416 10.4968 14.9065 10.7667C14.9715 11.0367 14.9823 11.3168 14.9382 11.5909C14.8941 11.865 14.796 12.1277 14.6496 12.3639C14.5032 12.6001 14.3114 12.8051 14.0852 12.9671C13.6272 13.2968 13.0573 13.4332 12.4991 13.3468C11.9408 13.2604 11.4393 12.9581 11.1032 12.5056C10.9392 12.2812 10.8212 12.0267 10.7563 11.7568C10.6913 11.4868 10.6805 11.2067 10.7246 10.9326C10.7687 10.6585 10.8668 10.3958 11.0132 10.1596C11.1596 9.92344 11.3514 9.71845 11.5776 9.55645C12.0356 9.22676 12.6055 9.09031 13.1637 9.17671C13.722 9.26311 14.2235 9.56538 14.5596 10.018Z" fill="#FF0000"/>
<path d="M19.7327 15.2634C19.9796 15.5997 20.1571 15.9814 20.255 16.3864C20.3529 16.7915 20.3692 17.2118 20.303 17.6232C20.2368 18.0346 20.0895 18.4288 19.8695 18.7831C19.6494 19.1373 19.3611 19.4446 19.0212 19.6871C18.6797 19.9402 18.2912 20.123 17.8782 20.225C17.4652 20.3269 17.0359 20.346 16.6155 20.281C16.195 20.2161 15.7917 20.0684 15.429 19.8466C15.0664 19.6249 14.7516 19.3334 14.5031 18.9892C14.2562 18.653 14.0787 18.2713 13.9809 17.8662C13.883 17.4612 13.8666 17.0408 13.9328 16.6294C13.999 16.2181 14.1464 15.8239 14.3664 15.4696C14.5864 15.1153 14.8747 14.8081 15.2147 14.5655C15.5567 14.314 15.9452 14.1324 16.358 14.0312C16.7708 13.9301 17.1996 13.9114 17.6196 13.9763C18.0397 14.0412 18.4427 14.1884 18.8054 14.4093C19.1681 14.6302 19.4832 14.9205 19.7327 15.2634Z" fill="#FF0000"/>
<path d="M26.4195 22.4562C26.7542 22.9121 26.9949 23.4295 27.1278 23.9786C27.2608 24.5277 27.2832 25.0975 27.194 25.6553C27.1047 26.2131 26.9055 26.7478 26.6078 27.2284C26.31 27.7091 25.9197 28.1262 25.4594 28.4557C24.5294 29.1264 23.3709 29.4034 22.2368 29.2263C21.1026 29.0491 20.0847 28.4323 19.4052 27.5102C19.067 27.056 18.8226 26.5395 18.686 25.9906C18.5495 25.4417 18.5235 24.8712 18.6097 24.3122C18.6958 23.7532 18.8923 23.2168 19.1879 22.734C19.4834 22.2512 19.8721 21.8316 20.3314 21.4994C21.2662 20.8222 22.4326 20.5426 23.5742 20.722C24.7158 20.9014 25.7392 21.5252 26.4195 22.4562Z" fill="#FF0000"/>
<path d="M30.2599 30.6955C30.4569 30.9641 30.5986 31.2689 30.6769 31.5923C30.7552 31.9157 30.7684 32.2514 30.7159 32.5799C30.6634 32.9085 30.5462 33.2234 30.371 33.5066C30.1958 33.7898 29.9661 34.0356 29.6951 34.23C29.1454 34.6283 28.4594 34.7927 27.7879 34.6872C27.1165 34.5817 26.5146 34.2148 26.1146 33.6672C25.9176 33.3986 25.7759 33.0938 25.6976 32.7704C25.6193 32.447 25.6061 32.1113 25.6586 31.7828C25.7111 31.4542 25.8283 31.1393 26.0035 30.8561C26.1787 30.5729 26.4084 30.327 26.6793 30.1327C27.2301 29.7373 27.9153 29.5746 28.5858 29.68C29.2563 29.7854 29.858 30.1504 30.2599 30.6955Z" fill="#FF0000"/>
<path d="M67.9857 89.9819C67.8216 89.7575 67.7037 89.5031 67.6387 89.2331C67.5737 88.9632 67.563 88.6831 67.6071 88.409C67.6512 88.1348 67.7492 87.8721 67.8956 87.6359C68.042 87.3998 68.2339 87.1948 68.4601 87.0328C68.9194 86.7043 69.4902 86.5696 70.0486 86.6582C70.6069 86.7467 71.1077 87.0512 71.442 87.5055C71.6061 87.7299 71.724 87.9844 71.789 88.2543C71.854 88.5243 71.8647 88.8044 71.8206 89.0785C71.7765 89.3526 71.6785 89.6153 71.5321 89.8515C71.3857 90.0877 71.1938 90.2927 70.9676 90.4547C70.7407 90.6188 70.4835 90.7367 70.2108 90.8018C69.9382 90.8668 69.6553 90.8777 69.3784 90.8338C69.1015 90.7899 68.836 90.6921 68.597 90.5459C68.358 90.3997 68.1503 90.2081 67.9857 89.9819Z" fill="#FF0000"/>
<path d="M62.8125 84.7367C62.5657 84.4005 62.3882 84.0188 62.2903 83.6137C62.1924 83.2087 62.1761 82.7883 62.2423 82.3769C62.3084 81.9656 62.4558 81.5713 62.6758 81.2171C62.8959 80.8628 63.1842 80.5555 63.5241 80.313C63.8655 80.06 64.2541 79.8772 64.6671 79.7752C65.0801 79.6732 65.5093 79.6542 65.9298 79.7191C66.3503 79.7841 66.7536 79.9317 67.1163 80.1535C67.4789 80.3753 67.7937 80.6667 68.0422 81.0109C68.289 81.3472 68.4665 81.7289 68.5644 82.1339C68.6623 82.539 68.6786 82.9593 68.6125 83.3707C68.5463 83.7821 68.3989 84.1763 68.1789 84.5306C67.9589 84.8848 67.6706 85.1921 67.3306 85.4346C66.9892 85.6876 66.6007 85.8705 66.1876 85.9724C65.7746 86.0744 65.3454 86.0935 64.9249 86.0285C64.5044 85.9636 64.1011 85.8159 63.7385 85.5941C63.3758 85.3724 63.0611 85.0809 62.8125 84.7367Z" fill="#FF0000"/>
<path d="M56.1258 77.5438C55.7911 77.0879 55.5504 76.5705 55.4174 76.0214C55.2845 75.4723 55.262 74.9024 55.3513 74.3446C55.4406 73.7868 55.6398 73.2522 55.9375 72.7715C56.2352 72.2909 56.6255 71.8738 57.0859 71.5442C58.0169 70.8765 59.1745 70.6013 60.3078 70.7782C61.4411 70.9552 62.4587 71.5702 63.1401 72.4898C63.4748 72.9456 63.7155 73.463 63.8484 74.0121C63.9814 74.5612 64.0038 75.1311 63.9146 75.6889C63.8253 76.2467 63.6261 76.7814 63.3284 77.262C63.0306 77.7426 62.6403 78.1598 62.18 78.4893C61.249 79.1571 60.0914 79.4323 58.9581 79.2553C57.8248 79.0783 56.8072 78.4634 56.1258 77.5438Z" fill="#FF0000"/>
<path d="M52.2741 69.3044C52.0771 69.0358 51.9354 68.731 51.8571 68.4076C51.7789 68.0842 51.7656 67.7485 51.8181 67.42C51.8706 67.0914 51.9878 66.7765 52.163 66.4933C52.3382 66.2101 52.5679 65.9642 52.8389 65.7699C53.3897 65.3745 54.0748 65.2118 54.7453 65.3172C55.4159 65.4226 56.0175 65.7876 56.4194 66.3327C56.6164 66.6013 56.7582 66.9061 56.8364 67.2295C56.9147 67.5529 56.928 67.8886 56.8755 68.2171C56.823 68.5457 56.7057 68.8606 56.5305 69.1438C56.3554 69.427 56.1257 69.6728 55.8547 69.8672C55.3039 70.2626 54.6187 70.4252 53.9482 70.3198C53.2777 70.2144 52.676 69.8495 52.2741 69.3044Z" fill="#FF0000"/>
<path d="M3.38863 20.1373C3.61486 20.2993 3.80669 20.5043 3.95309 20.7404C4.09948 20.9766 4.19755 21.2393 4.24165 21.5134C4.28574 21.7876 4.27499 22.0677 4.21001 22.3376C4.14503 22.6076 4.02711 22.862 3.86303 23.0864C3.52869 23.5407 3.02795 23.8452 2.46961 23.9338C1.91126 24.0223 1.34042 23.8877 0.881104 23.5591C0.654881 23.3971 0.463048 23.1922 0.316651 22.956C0.170254 22.7198 0.0721859 22.4571 0.0280922 22.183C-0.0160015 21.9089 -0.00524922 21.6288 0.0597298 21.3588C0.124709 21.0889 0.242631 20.8344 0.406707 20.61C0.741046 20.1557 1.24179 19.8512 1.80013 19.7627C2.35848 19.6741 2.92932 19.8088 3.38863 20.1373Z" fill="#FF0000"/>
<path d="M9.93985 23.5479C10.2798 23.7904 10.5681 24.0977 10.7882 24.4519C11.0082 24.8062 11.1555 25.2004 11.2217 25.6118C11.2879 26.0232 11.2716 26.4435 11.1737 26.8486C11.0758 27.2536 10.8983 27.6353 10.6514 27.9716C10.4019 28.3145 10.0867 28.6048 9.72406 28.8257C9.36138 29.0467 8.95838 29.1938 8.53833 29.2587C8.11828 29.3236 7.68949 29.3049 7.27672 29.2038C6.86395 29.1026 6.47536 28.921 6.13338 28.6695C5.79343 28.427 5.50511 28.1197 5.28508 27.7654C5.06505 27.4112 4.91769 27.0169 4.85152 26.6056C4.78534 26.1942 4.80167 25.7738 4.89955 25.3688C4.99744 24.9637 5.17493 24.582 5.42178 24.2458C5.67031 23.9016 5.98507 23.6102 6.34773 23.3884C6.71039 23.1666 7.11369 23.0189 7.53417 22.954C7.95464 22.889 8.38388 22.9081 8.79689 23.0101C9.2099 23.112 9.59843 23.2949 9.93985 23.5479Z" fill="#FF0000"/>
<path d="M18.5468 28.343C19.0071 28.6726 19.3974 29.0897 19.6952 29.5703C19.9929 30.051 20.1921 30.5856 20.2814 31.1434C20.3706 31.7012 20.3482 32.2711 20.2152 32.8202C20.0823 33.3693 19.8415 33.8867 19.5069 34.3426C18.8255 35.2622 17.8079 35.8771 16.6746 36.0541C15.5413 36.2311 14.3837 35.9559 13.4527 35.2881C12.9882 34.9593 12.5941 34.5417 12.2933 34.0596C11.9925 33.5774 11.7911 33.0405 11.7006 32.4799C11.6102 31.9194 11.6327 31.3466 11.7667 30.7948C11.9007 30.243 12.1436 29.7233 12.4813 29.2661C13.1663 28.3468 14.1877 27.7341 15.3235 27.5613C16.4593 27.3884 17.6177 27.6694 18.5468 28.343Z" fill="#FF0000"/>
<path d="M24.7704 35.0069C25.043 35.2012 25.2741 35.4477 25.4503 35.7318C25.6265 36.0159 25.7443 36.3321 25.7968 36.662C25.8493 36.9919 25.8356 37.3289 25.7563 37.6534C25.6771 37.978 25.5339 38.2836 25.3352 38.5526C24.9353 39.0969 24.3356 39.4616 23.6669 39.5671C22.9982 39.6725 22.3149 39.5101 21.7659 39.1154C21.4949 38.921 21.2652 38.6752 21.09 38.392C20.9148 38.1088 20.7976 37.7939 20.7451 37.4653C20.6926 37.1368 20.7059 36.8011 20.7841 36.4777C20.8624 36.1543 21.0041 35.8495 21.2011 35.5809C21.6011 35.0372 22.1998 34.6722 22.8677 34.5648C23.5356 34.4574 24.219 34.6162 24.7704 35.0069Z" fill="#FF0000"/>
<path d="M79.1566 79.8514C78.9304 79.6894 78.7386 79.4844 78.5922 79.2482C78.4458 79.012 78.3477 78.7493 78.3036 78.4752C78.2595 78.2011 78.2703 77.921 78.3352 77.6511C78.4002 77.3811 78.5182 77.1266 78.6822 76.9023C78.8468 76.6761 79.0546 76.4844 79.2935 76.3383C79.5325 76.1921 79.798 76.0942 80.0749 76.0503C80.3518 76.0064 80.6347 76.0173 80.9074 76.0824C81.1801 76.1475 81.4372 76.2654 81.6642 76.4295C81.8904 76.5915 82.0822 76.7965 82.2286 77.0327C82.375 77.2689 82.4731 77.5316 82.5172 77.8057C82.5613 78.0798 82.5505 78.3599 82.4855 78.6299C82.4205 78.8998 82.3026 79.1543 82.1385 79.3786C81.8042 79.833 81.3035 80.1375 80.7451 80.226C80.1868 80.3145 79.6159 80.1799 79.1566 79.8514Z" fill="#FF0000"/>
<path d="M72.6055 76.452C72.2672 76.2095 71.9802 75.9028 71.7612 75.5495C71.5422 75.1962 71.3954 74.8032 71.3293 74.3932C71.2631 73.9831 71.279 73.5641 71.3759 73.1602C71.4728 72.7563 71.6488 72.3754 71.8939 72.0396C72.1434 71.6966 72.4586 71.4063 72.8213 71.1854C73.184 70.9645 73.587 70.8173 74.007 70.7525C74.4271 70.6876 74.8559 70.7062 75.2686 70.8074C75.6814 70.9085 76.07 71.0901 76.412 71.3417C76.7507 71.5851 77.0379 71.8929 77.2571 72.2471C77.4762 72.6014 77.6231 72.9954 77.6892 73.4063C77.7553 73.8173 77.7394 74.2372 77.6423 74.642C77.5452 75.0468 77.369 75.4286 77.1236 75.7653C76.8742 76.1087 76.5588 76.3991 76.1957 76.6198C75.8327 76.8406 75.4292 76.9871 75.0088 77.051C74.5883 77.1149 74.1593 77.0949 73.7468 76.992C73.3342 76.8892 72.9462 76.7056 72.6055 76.452Z" fill="#FF0000"/>
<path d="M63.9986 71.657C63.5382 71.3275 63.1479 70.9104 62.8502 70.4297C62.5525 69.9491 62.3533 69.4144 62.264 68.8566C62.1747 68.2988 62.1972 67.729 62.3302 67.1799C62.4631 66.6308 62.7038 66.1134 63.0385 65.6575C63.7181 64.7354 64.7359 64.1186 65.8701 63.9414C67.0042 63.7643 68.1627 64.0413 69.0927 64.712C69.5497 65.0431 69.9366 65.4609 70.2312 65.9415C70.5258 66.422 70.7223 66.9557 70.8094 67.5121C70.8965 68.0685 70.8725 68.6365 70.7388 69.1836C70.6051 69.7307 70.3643 70.2461 70.0302 70.7003C69.3509 71.6152 68.3385 72.2281 67.2106 72.407C66.0827 72.5859 64.9294 72.3166 63.9986 71.657Z" fill="#FF0000"/>
<path d="M57.7636 64.9932C57.4926 64.7988 57.2629 64.553 57.0877 64.2698C56.9125 63.9866 56.7953 63.6717 56.7428 63.3431C56.6903 63.0146 56.7036 62.6789 56.7818 62.3555C56.8601 62.0321 57.0018 61.7273 57.1988 61.4587C57.6007 60.9136 58.2024 60.5486 58.8729 60.4432C59.5434 60.3378 60.2286 60.5005 60.7794 60.8959C61.0507 61.0913 61.2807 61.3381 61.456 61.6223C61.6313 61.9064 61.7486 62.2223 61.8011 62.5518C61.8536 62.8813 61.8402 63.2178 61.7618 63.5421C61.6834 63.8664 61.5414 64.1721 61.3441 64.4416C60.9405 64.985 60.3381 65.3477 59.6676 65.451C58.9972 65.5542 58.313 65.3897 57.7636 64.9932Z" fill="#FF0000"/>
<path d="M86.6228 66.8056C86.0897 66.6352 85.6463 66.2609 85.3901 65.7649C85.1338 65.2689 85.0856 64.6918 85.2561 64.1604C85.4341 63.627 85.8168 63.1855 86.3206 62.9324C86.8243 62.6793 87.4081 62.6352 87.9443 62.8097C88.2197 62.8873 88.4765 63.0196 88.6993 63.1986C88.9221 63.3777 89.1063 63.5997 89.2407 63.8515C89.3752 64.1032 89.4573 64.3795 89.4819 64.6636C89.5066 64.9478 89.4734 65.234 89.3842 65.505C89.2951 65.776 89.1519 66.0263 88.9633 66.2408C88.7746 66.4553 88.5444 66.6295 88.2865 66.7531C88.0286 66.8767 87.7482 66.9471 87.4623 66.9599C87.1764 66.9728 86.8909 66.928 86.6228 66.8281V66.8056Z" fill="#FF0000"/>
<path d="M79.326 65.5674C78.729 65.3704 78.2038 65.0015 77.8167 64.5074C77.4297 64.0134 77.198 63.4161 77.1511 62.7911C77.1042 62.166 77.244 61.5411 77.5529 60.9951C77.8618 60.4491 78.3261 60.0064 78.8871 59.723C79.4481 59.4395 80.0808 59.3279 80.7053 59.4023C81.3299 59.4767 81.9183 59.7336 82.3965 60.1408C82.8748 60.548 83.2213 61.0871 83.3925 61.6903C83.5637 62.2934 83.5518 62.9336 83.3584 63.53C83.2305 63.9294 83.0242 64.2995 82.7516 64.6187C82.4789 64.9379 82.1452 65.1999 81.77 65.3895C81.3948 65.5791 80.9855 65.6925 80.5659 65.723C80.1464 65.7535 79.7249 65.7006 79.326 65.5674Z" fill="#FF0000"/>
<path d="M69.6461 63.6426C68.8378 63.3748 68.1271 62.8745 67.6036 62.2048C67.0801 61.5351 66.7672 60.726 66.7044 59.8794C66.6416 59.0328 66.8316 58.1866 67.2506 57.4475C67.6695 56.7084 68.2987 56.1094 69.0587 55.726C69.8187 55.3426 70.6756 55.1919 71.5214 55.2931C72.3672 55.3942 73.164 55.7426 73.8114 56.2942C74.4589 56.8459 74.928 57.5762 75.1596 58.3932C75.3912 59.2101 75.375 60.0771 75.113 60.8848C74.7514 61.9704 73.9738 62.8696 72.9497 63.3862C71.9256 63.9028 70.7381 63.995 69.6461 63.6426Z" fill="#FF0000"/>
<path d="M61.6379 59.2187C61.163 59.0598 60.7458 58.7646 60.4387 58.3701C60.1317 57.9757 59.9485 57.4995 59.9121 57.0016C59.8757 56.5037 59.9879 56.0062 60.2344 55.5716C60.4809 55.137 60.8508 54.7846 61.2976 54.5589C61.7444 54.3331 62.2482 54.244 62.7457 54.3027C63.2432 54.3614 63.7122 54.5654 64.0937 54.8889C64.4753 55.2124 64.7524 55.6411 64.8902 56.1211C65.028 56.601 65.0204 57.1109 64.8683 57.5866C64.6565 58.2294 64.1974 58.7623 63.5918 59.0683C62.9861 59.3743 62.2835 59.4284 61.6379 59.2187Z" fill="#FF0000"/>
<path d="M89.6499 52.1161C90.8289 52.1161 91.7847 51.1687 91.7847 50C91.7847 48.8312 90.8289 47.8838 89.6499 47.8838C88.4709 47.8838 87.5151 48.8312 87.5151 50C87.5151 51.1687 88.4709 52.1161 89.6499 52.1161Z" fill="#FF0000"/>
<path d="M82.3306 53.1629C84.096 53.1629 85.5271 51.7468 85.5271 49.9999C85.5271 48.253 84.096 46.8369 82.3306 46.8369C80.5652 46.8369 79.134 48.253 79.134 49.9999C79.134 51.7468 80.5652 53.1629 82.3306 53.1629Z" fill="#FF0000"/>
<path d="M72.5151 54.2886C74.9105 54.2886 76.8524 52.3686 76.8524 50C76.8524 47.6315 74.9105 45.7114 72.5151 45.7114C70.1196 45.7114 68.1777 47.6315 68.1777 50C68.1777 52.3686 70.1196 54.2886 72.5151 54.2886Z" fill="#FF0000"/>
<path d="M63.5242 52.5326C64.9403 52.5326 66.0882 51.3987 66.0882 49.9999C66.0882 48.6012 64.9403 47.4673 63.5242 47.4673C62.1082 47.4673 60.9602 48.6012 60.9602 49.9999C60.9602 51.3987 62.1082 52.5326 63.5242 52.5326Z" fill="#FF0000"/>
<path d="M87.9443 37.213C87.5444 37.3425 87.115 37.3507 86.7104 37.2367C86.3058 37.1227 85.9443 36.8916 85.6717 36.5727C85.399 36.2537 85.2275 35.8613 85.1789 35.4451C85.1303 35.0289 85.2067 34.6078 85.3986 34.2349C85.5904 33.8621 85.8889 33.5544 86.2564 33.3508C86.6239 33.1472 87.0437 33.0569 87.4628 33.0914C87.8818 33.1258 88.2811 33.2835 88.6101 33.5443C88.9391 33.8051 89.1831 34.1574 89.311 34.5566C89.3971 34.8204 89.43 35.0986 89.4079 35.3751C89.3857 35.6517 89.3089 35.9211 89.1819 36.168C89.0549 36.4149 88.8802 36.6343 88.6678 36.8136C88.4554 36.993 88.2095 37.1287 87.9443 37.213Z" fill="#FF0000"/>
<path d="M81.3253 40.4547C80.7257 40.647 80.0823 40.6578 79.4766 40.4857C78.8708 40.3137 78.3298 39.9665 77.922 39.4881C77.5142 39.0097 77.2579 38.4216 77.1854 37.798C77.113 37.1744 77.2277 36.5435 77.5151 35.9849C77.8025 35.4263 78.2496 34.9652 78.7999 34.6598C79.3502 34.3544 79.9791 34.2185 80.6069 34.2692C81.2347 34.3199 81.8334 34.555 82.3272 34.9447C82.8209 35.3344 83.1877 35.8613 83.381 36.4587C83.6342 37.2604 83.5605 38.1291 83.1758 38.877C82.791 39.6248 82.1263 40.1916 81.3253 40.4547Z" fill="#FF0000"/>
<path d="M72.2892 44.5294C71.4768 44.7888 70.6055 44.8024 69.7854 44.5686C68.9652 44.3347 68.2331 43.8638 67.6814 43.2154C67.1298 42.5669 66.7833 41.7701 66.6859 40.9256C66.5885 40.081 66.7445 39.2267 67.1342 38.4704C67.5239 37.7142 68.1298 37.0901 68.8753 36.6769C69.6208 36.2637 70.4724 36.08 71.3227 36.149C72.1729 36.218 72.9836 36.5366 73.6522 37.0645C74.3207 37.5925 74.8173 38.3061 75.0791 39.1152C75.4244 40.2019 75.325 41.3806 74.8025 42.3946C74.28 43.4086 73.3766 44.1759 72.2892 44.5294Z" fill="#FF0000"/>
<path d="M63.2531 45.5987C62.7747 45.7499 62.2621 45.7565 61.7799 45.6177C61.2978 45.4789 60.8676 45.201 60.5438 44.8189C60.2199 44.4368 60.0168 43.9678 59.96 43.4708C59.9033 42.9739 59.9954 42.4714 60.2249 42.0266C60.4544 41.5818 60.8108 41.2146 61.2494 40.9714C61.6879 40.7282 62.1889 40.6199 62.6892 40.66C63.1894 40.7002 63.6666 40.887 64.0604 41.197C64.4542 41.507 64.7472 41.9263 64.9022 42.402C65.1052 43.0439 65.0459 43.7396 64.7371 44.3382C64.4283 44.9367 63.8951 45.3897 63.2531 45.5987Z" fill="#FF0000"/>
<path d="M0.881104 76.4407C1.34042 76.1122 1.91126 75.9776 2.46961 76.0661C3.02795 76.1546 3.52869 76.4592 3.86303 76.9135C4.19085 77.3658 4.32502 77.9294 4.23606 78.4803C4.14711 79.0312 3.8423 79.5243 3.38863 79.8514C2.92932 80.1799 2.35848 80.3145 1.80013 80.226C1.24179 80.1375 0.741046 79.8329 0.406706 79.3786C0.0788907 78.9262 -0.0552837 78.3627 0.0336727 77.8118C0.122629 77.2609 0.427437 76.7678 0.881104 76.4407Z" fill="#FF0000"/>
<path d="M6.17853 71.3304C6.52051 71.0789 6.9091 70.8973 7.32187 70.7961C7.73465 70.695 8.16343 70.6763 8.58348 70.7412C9.00353 70.8061 9.40653 70.9533 9.76922 71.1742C10.1319 71.3951 10.4471 71.6854 10.6966 72.0283C10.9434 72.3646 11.1209 72.7463 11.2188 73.1513C11.3167 73.5564 11.333 73.9767 11.2669 74.3881C11.2007 74.7995 11.0533 75.1937 10.8333 75.548C10.6133 75.9022 10.325 76.2095 9.98501 76.452C9.64303 76.7036 9.25444 76.8852 8.84166 76.9863C8.42889 77.0874 8.0001 77.1061 7.58005 77.0412C7.16 76.9763 6.757 76.8292 6.39432 76.6083C6.03163 76.3874 5.71644 76.0971 5.46693 75.7541C5.22155 75.4173 5.04528 75.0356 4.94822 74.6308C4.85116 74.226 4.83523 73.806 4.90134 73.3951C4.96745 72.9841 5.11429 72.5902 5.33346 72.2359C5.55262 71.8816 5.8398 71.5739 6.17853 71.3304Z" fill="#FF0000"/>
<path d="M13.4413 64.7005C14.3723 64.0327 15.5299 63.7575 16.6632 63.9345C17.7965 64.1115 18.8141 64.7264 19.4955 65.646C19.8302 66.1019 20.0709 66.6193 20.2039 67.1684C20.3368 67.7175 20.3593 68.2874 20.27 68.8452C20.1807 69.403 19.9815 69.9376 19.6838 70.4183C19.3861 70.8989 18.9958 71.316 18.5354 71.6456C17.604 72.3151 16.4447 72.5902 15.3104 72.411C14.1761 72.2317 13.1591 71.6126 12.4812 70.6888C12.1483 70.2333 11.909 69.7167 11.7771 69.1687C11.6451 68.6208 11.6231 68.0522 11.7123 67.4958C11.8015 66.9393 12.0002 66.4059 12.2969 65.9262C12.5936 65.4465 12.9825 65.03 13.4413 64.7005Z" fill="#FF0000"/>
<path d="M21.7659 60.8959C22.3167 60.5005 23.0019 60.3378 23.6724 60.4432C24.3429 60.5486 24.9445 60.9136 25.3465 61.4587C25.5435 61.7273 25.6852 62.0321 25.7635 62.3555C25.8417 62.6789 25.855 63.0146 25.8025 63.3431C25.75 63.6717 25.6328 63.9866 25.4576 64.2698C25.2824 64.553 25.0527 64.7988 24.7817 64.9932C24.2309 65.3885 23.5458 65.5512 22.8752 65.4458C22.2047 65.3404 21.6031 64.9755 21.2011 64.4303C20.8062 63.8868 20.6439 63.2094 20.7498 62.5467C20.8557 61.884 21.2211 61.2903 21.7659 60.8959Z" fill="#FF0000"/>
<path d="M81.6642 23.5592C81.2048 23.8877 80.634 24.0223 80.0756 23.9338C79.5173 23.8453 79.0166 23.5407 78.6822 23.0864C78.5182 22.8621 78.4002 22.6076 78.3352 22.3376C78.2703 22.0677 78.2595 21.7876 78.3036 21.5135C78.3477 21.2394 78.4458 20.9766 78.5922 20.7405C78.7386 20.5043 78.9304 20.2993 79.1566 20.1373C79.3836 19.9732 79.6407 19.8552 79.9134 19.7902C80.1861 19.7251 80.4689 19.7142 80.7458 19.7581C81.0228 19.802 81.2883 19.8998 81.5272 20.046C81.7662 20.1922 81.9739 20.3839 82.1385 20.61C82.3026 20.8344 82.4205 21.0889 82.4855 21.3588C82.5505 21.6288 82.5613 21.9089 82.5172 22.183C82.4731 22.4571 82.375 22.7198 82.2286 22.956C82.0822 23.1922 81.8904 23.3972 81.6642 23.5592Z" fill="#FF0000"/>
<path d="M76.3667 28.6695C76.0248 28.921 75.6362 29.1026 75.2234 29.2038C74.8106 29.3049 74.3818 29.3236 73.9618 29.2587C73.5417 29.1938 73.1387 29.0467 72.776 28.8257C72.4134 28.6048 72.0982 28.3145 71.8487 27.9716C71.6018 27.6353 71.4243 27.2536 71.3264 26.8486C71.2285 26.4435 71.2122 26.0232 71.2784 25.6118C71.3446 25.2004 71.4919 24.8062 71.712 24.4519C71.932 24.0977 72.2203 23.7904 72.5603 23.5479C72.9017 23.2949 73.2902 23.112 73.7032 23.0101C74.1162 22.9081 74.5455 22.889 74.9659 22.954C75.3864 23.0189 75.7897 23.1666 76.1524 23.3884C76.515 23.6102 76.8298 23.9016 77.0783 24.2458C77.3252 24.582 77.5027 24.9637 77.6006 25.3688C77.6984 25.7738 77.7148 26.1942 77.6486 26.6056C77.5824 27.0169 77.4351 27.4112 77.215 27.7654C76.995 28.1197 76.7067 28.427 76.3667 28.6695Z" fill="#FF0000"/>
<path d="M69.0927 35.2881C68.1627 35.9588 67.0042 36.2358 65.8701 36.0587C64.7359 35.8815 63.7181 35.2647 63.0385 34.3426C62.7038 33.8867 62.4631 33.3693 62.3302 32.8202C62.1972 32.2711 62.1747 31.7013 62.264 31.1435C62.3533 30.5857 62.5525 30.051 62.8502 29.5704C63.1479 29.0897 63.5382 28.6726 63.9986 28.3431C64.9252 27.6799 66.0758 27.4051 67.2034 27.5777C68.3311 27.7503 69.3459 28.3564 70.0302 29.2661C70.3696 29.7213 70.6147 30.2392 70.7514 30.7897C70.888 31.3402 70.9135 31.9123 70.8262 32.4726C70.739 33.033 70.5408 33.5705 70.2432 34.0539C69.9456 34.5372 69.5545 34.9568 69.0927 35.2881Z" fill="#FF0000"/>
<path d="M60.7794 39.104C60.2286 39.4994 59.5434 39.6621 58.8729 39.5567C58.2024 39.4513 57.6007 39.0863 57.1988 38.5412C57.0018 38.2726 56.8601 37.9678 56.7818 37.6444C56.7036 37.321 56.6903 36.9853 56.7428 36.6568C56.7953 36.3282 56.9125 36.0133 57.0877 35.7301C57.2629 35.4469 57.4926 35.2011 57.7636 35.0067C58.3143 34.6113 58.9995 34.4487 59.67 34.5541C60.3406 34.6595 60.9422 35.0244 61.3441 35.5695C61.5411 35.8381 61.6829 36.1429 61.7611 36.4663C61.8394 36.7897 61.8526 37.1254 61.8002 37.4539C61.7477 37.7825 61.6304 38.0974 61.4552 38.3806C61.28 38.6638 61.0503 38.9097 60.7794 39.104Z" fill="#FF0000"/>
<path d="M11.1145 87.5055C11.4488 87.0512 11.9495 86.7467 12.5079 86.6582C13.0662 86.5696 13.6371 86.7043 14.0964 87.0328C14.3226 87.1948 14.5145 87.3998 14.6609 87.6359C14.8072 87.8721 14.9053 88.1348 14.9494 88.409C14.9935 88.6831 14.9828 88.9632 14.9178 89.2331C14.8528 89.5031 14.7349 89.7575 14.5708 89.9819C14.2348 90.4345 13.7332 90.7367 13.175 90.8231C12.6167 90.9095 12.0468 90.7731 11.5889 90.4434C11.1352 90.1164 10.8304 89.6232 10.7414 89.0723C10.6525 88.5214 10.7867 87.9579 11.1145 87.5055Z" fill="#FF0000"/>
<path d="M14.5482 81.0446C14.7968 80.7004 15.1115 80.409 15.4742 80.1872C15.8369 79.9654 16.2402 79.8178 16.6606 79.7528C17.0811 79.6879 17.5103 79.7069 17.9234 79.8089C18.3364 79.9109 18.7249 80.0937 19.0663 80.3467C19.4063 80.5892 19.6946 80.8965 19.9146 81.2508C20.1346 81.605 20.282 81.9993 20.3482 82.4106C20.4144 82.822 20.398 83.2424 20.3001 83.6474C20.2023 84.0525 20.0248 84.4342 19.7779 84.7704C19.5294 85.1146 19.2146 85.4061 18.852 85.6278C18.4893 85.8496 18.086 85.9973 17.6655 86.0622C17.2451 86.1272 16.8158 86.1081 16.4028 86.0061C15.9898 85.9042 15.6013 85.7213 15.2598 85.4683C14.9199 85.2258 14.6316 84.9185 14.4115 84.5643C14.1915 84.21 14.0442 83.8158 13.978 83.4044C13.9118 82.993 13.9281 82.5727 14.026 82.1676C14.1239 81.7626 14.3014 81.3809 14.5482 81.0446Z" fill="#FF0000"/>
<path d="M19.3939 72.501C20.0718 71.5772 21.0889 70.9581 22.2231 70.7788C23.3574 70.5996 24.5167 70.8747 25.4482 71.5443C25.9085 71.8738 26.2988 72.2909 26.5965 72.7716C26.8942 73.2522 27.0935 73.7869 27.1827 74.3446C27.272 74.9024 27.2495 75.4723 27.1166 76.0214C26.9836 76.5705 26.7429 77.0879 26.4082 77.5438C25.7287 78.4659 24.7108 79.0827 23.5767 79.2599C22.4425 79.437 21.2841 79.16 20.354 78.4893C19.8953 78.1599 19.5064 77.7433 19.2096 77.2636C18.9129 76.7839 18.7143 76.2505 18.625 75.694C18.5358 75.1376 18.5578 74.569 18.6898 74.0211C18.8217 73.4731 19.061 72.9565 19.3939 72.501Z" fill="#FF0000"/>
<path d="M26.1258 66.3327C26.5277 65.7876 27.1294 65.4226 27.7999 65.3172C28.4704 65.2118 29.1556 65.3745 29.7064 65.7699C29.9773 65.9642 30.207 66.2101 30.3822 66.4933C30.5574 66.7765 30.6747 67.0914 30.7272 67.42C30.7796 67.7485 30.7664 68.0842 30.6881 68.4076C30.6099 68.731 30.4681 69.0358 30.2711 69.3044C29.8692 69.8495 29.2676 70.2144 28.597 70.3198C27.9265 70.4252 27.2413 70.2626 26.6906 69.8672C26.4196 69.6728 26.1899 69.427 26.0147 69.1438C25.8395 68.8606 25.7223 68.5457 25.6698 68.2171C25.6173 67.8886 25.6306 67.5529 25.7088 67.2295C25.7871 66.9061 25.9288 66.6013 26.1258 66.3327Z" fill="#FF0000"/>
<path d="M71.4308 12.4944C71.0948 12.9469 70.5932 13.2492 70.035 13.3356C69.4767 13.422 68.9068 13.2856 68.4489 12.9559C68.2226 12.7939 68.0308 12.5889 67.8844 12.3527C67.738 12.1165 67.6399 11.8538 67.5958 11.5797C67.5517 11.3056 67.5625 11.0255 67.6275 10.7555C67.6925 10.4856 67.8104 10.2311 67.9745 10.0068C68.3086 9.55171 68.8104 9.24749 69.3696 9.16095C69.9287 9.07442 70.4995 9.21264 70.9564 9.54525C71.1826 9.70725 71.3744 9.91224 71.5208 10.1484C71.6672 10.3846 71.7653 10.6473 71.8094 10.9214C71.8535 11.1955 71.8427 11.4756 71.7778 11.7456C71.7128 12.0155 71.5949 12.27 71.4308 12.4944Z" fill="#FF0000"/>
<path d="M67.9858 18.978C67.7363 19.3209 67.4211 19.6112 67.0584 19.8322C66.6957 20.0531 66.2927 20.2002 65.8727 20.2651C65.4526 20.33 65.0238 20.3113 64.6111 20.2102C64.1983 20.1091 63.8097 19.9275 63.4677 19.6759C63.1278 19.4334 62.8395 19.1261 62.6194 18.7718C62.3994 18.4176 62.252 18.0234 62.1859 17.612C62.1197 17.2006 62.136 16.7802 62.2339 16.3752C62.3318 15.9701 62.5093 15.5885 62.7561 15.2522C63.0056 14.9093 63.3208 14.619 63.6835 14.398C64.0462 14.1771 64.4492 14.03 64.8692 13.9651C65.2893 13.9002 65.7181 13.9189 66.1309 14.02C66.5436 14.1211 66.9322 14.3027 67.2742 14.5543C67.6142 14.7968 67.9025 15.1041 68.1225 15.4584C68.3425 15.8126 68.4899 16.2068 68.5561 16.6182C68.6222 17.0296 68.6059 17.45 68.508 17.855C68.4101 18.2601 68.2326 18.6417 67.9858 18.978Z" fill="#FF0000"/>
<path d="M63.1401 27.4989C62.4605 28.4209 61.4427 29.0378 60.3085 29.2149C59.1743 29.392 58.0159 29.1151 57.0859 28.4444C56.6255 28.1149 56.2352 27.6977 55.9375 27.2171C55.6398 26.7364 55.4406 26.2018 55.3513 25.644C55.262 25.0862 55.2845 24.5163 55.4174 23.9672C55.5504 23.4181 55.7911 22.9007 56.1258 22.4448C56.8053 21.5228 57.8232 20.9059 58.9574 20.7288C60.0915 20.5517 61.25 20.8286 62.18 21.4993C62.6403 21.8288 63.0306 22.246 63.3284 22.7266C63.6261 23.2073 63.8253 23.7419 63.9146 24.2997C64.0038 24.8575 63.9814 25.4274 63.8484 25.9765C63.7155 26.5256 63.4748 27.043 63.1401 27.4989Z" fill="#FF0000"/>
<path d="M56.476 33.6672C56.074 34.2123 55.4724 34.5773 54.8019 34.6826C54.1313 34.788 53.4462 34.6254 52.8954 34.23C52.6244 34.0356 52.3947 33.7898 52.2195 33.5066C52.0443 33.2234 51.9271 32.9085 51.8746 32.5799C51.8221 32.2514 51.8354 31.9157 51.9137 31.5923C51.9919 31.2689 52.1336 30.9641 52.3306 30.6955C52.7326 30.1504 53.3342 29.7854 54.0047 29.68C54.6753 29.5746 55.3604 29.7373 55.9112 30.1327C56.1822 30.327 56.4119 30.5729 56.5871 30.8561C56.7623 31.1393 56.8795 31.4542 56.932 31.7828C56.9845 32.1113 56.9712 32.447 56.893 32.7704C56.8147 33.0938 56.673 33.3986 56.476 33.6672Z" fill="#FF0000"/>
<path d="M24.296 94.8897C24.4227 94.4869 24.6669 94.1308 24.9974 93.8667C25.3279 93.6026 25.7297 93.4424 26.1518 93.4066C26.5739 93.3708 26.9972 93.4609 27.3677 93.6656C27.7383 93.8702 28.0393 94.1801 28.2326 94.5557C28.4259 94.9314 28.5026 95.3559 28.4531 95.7751C28.4035 96.1944 28.2299 96.5895 27.9544 96.9101C27.6788 97.2308 27.3138 97.4625 26.9057 97.5758C26.4976 97.689 26.0649 97.6787 25.6627 97.5462C25.3975 97.4619 25.1516 97.3261 24.9392 97.1468C24.7268 96.9675 24.552 96.748 24.425 96.5012C24.298 96.2543 24.2212 95.9848 24.1991 95.7083C24.1769 95.4317 24.2099 95.1536 24.296 94.8897Z" fill="#FF0000"/>
<path d="M25.5385 87.6744C25.8046 86.8731 26.3779 86.2091 27.1333 85.8275C27.8887 85.4458 28.765 85.3773 29.5709 85.637C29.9701 85.7635 30.3402 85.9674 30.6599 86.2371C30.9796 86.5068 31.2426 86.8369 31.4337 87.2084C31.6248 87.5798 31.7403 87.9853 31.7734 88.4014C31.8065 88.8176 31.7566 89.2361 31.6266 89.6329C31.366 90.4375 30.7953 91.1059 30.0401 91.4912C29.285 91.8764 28.4072 91.9469 27.5998 91.6872C26.7925 91.4275 26.1218 90.8588 25.7352 90.1062C25.3486 89.3537 25.2779 88.4789 25.5385 87.6744Z" fill="#FF0000"/>
<path d="M27.4925 78.0842C27.7527 77.2676 28.2506 76.5465 28.9229 76.0124C29.5952 75.4784 30.4116 75.1555 31.2684 75.0848C32.1253 75.0141 32.9838 75.1987 33.7351 75.6153C34.4864 76.0318 35.0966 76.6615 35.488 77.4243C35.8795 78.1871 36.0347 79.0487 35.9338 79.8995C35.833 80.7504 35.4806 81.5522 34.9216 82.2031C34.3625 82.854 33.622 83.3247 32.794 83.5553C31.9659 83.7859 31.0878 83.7661 30.2711 83.4984C29.1857 83.1426 28.2851 82.3744 27.7648 81.3606C27.2445 80.3468 27.1467 79.1694 27.4925 78.0842Z" fill="#FF0000"/>
<path d="M31.9654 70.1599C32.1201 69.6804 32.4141 69.2575 32.8102 68.9447C33.2063 68.6319 33.6866 68.4433 34.1904 68.4028C34.6941 68.3623 35.1986 68.4717 35.6399 68.7172C36.0811 68.9626 36.4394 69.3331 36.6692 69.7817C36.899 70.2302 36.99 70.7367 36.9308 71.2368C36.8715 71.737 36.6646 72.2083 36.3362 72.5912C36.0079 72.9741 35.5729 73.2512 35.0864 73.3874C34.5998 73.5237 34.0837 73.513 33.6032 73.3567C32.9634 73.1453 32.4328 72.6914 32.1262 72.0931C31.8197 71.4948 31.762 70.8003 31.9654 70.1599Z" fill="#FF0000"/>
<path d="M58.2493 5.11023C58.1225 5.51305 57.8783 5.86917 57.5479 6.13329C57.2174 6.3974 56.8155 6.55755 56.3934 6.59336C55.9713 6.62918 55.5481 6.53903 55.1775 6.33439C54.807 6.12976 54.5059 5.81989 54.3126 5.44423C54.1194 5.06856 54.0426 4.64408 54.0922 4.22481C54.1417 3.80554 54.3153 3.41044 54.5909 3.0898C54.8664 2.76915 55.2315 2.53745 55.6396 2.42419C56.0477 2.31092 56.4803 2.32122 56.8826 2.45377C57.1478 2.53808 57.3937 2.6738 57.6061 2.85315C57.8185 3.03249 57.9932 3.2519 58.1202 3.49878C58.2472 3.74565 58.324 4.01511 58.3462 4.29166C58.3683 4.56822 58.3354 4.8464 58.2493 5.11023Z" fill="#FF0000"/>
<path d="M56.9955 12.3819C56.7294 13.1832 56.1561 13.8471 55.4007 14.2288C54.6453 14.6105 53.769 14.6789 52.9631 14.4192C52.366 14.2222 51.8408 13.8533 51.4538 13.3592C51.0667 12.8652 50.8351 12.2679 50.7882 11.6429C50.7412 11.0178 50.881 10.3929 51.19 9.84686C51.4989 9.30086 51.9632 8.85823 52.5242 8.57478C53.0852 8.29133 53.7178 8.17975 54.3424 8.2541C54.9669 8.32846 55.5554 8.58542 56.0336 8.99259C56.5118 9.39976 56.8584 9.93891 57.0296 10.5421C57.2007 11.1452 57.1889 11.7854 56.9955 12.3819Z" fill="#FF0000"/>
<path d="M55.0528 21.9158C54.7926 22.7324 54.2947 23.4535 53.6224 23.9875C52.9501 24.5216 52.1337 24.8445 51.2769 24.9152C50.4201 24.9859 49.5615 24.8012 48.8102 24.3847C48.0589 23.9681 47.4488 23.3385 47.0573 22.5757C46.6658 21.8129 46.5106 20.9513 46.6115 20.1005C46.7124 19.2496 47.0647 18.4478 47.6237 17.7969C48.1828 17.146 48.9233 16.6753 49.7514 16.4447C50.5794 16.2141 51.4575 16.2339 52.2742 16.5016C53.3596 16.8574 54.2602 17.6256 54.7805 18.6394C55.3008 19.6532 55.3986 20.8306 55.0528 21.9158Z" fill="#FF0000"/>
<path d="M50.5799 29.8402C50.4271 30.3233 50.1337 30.7503 49.737 31.0668C49.3402 31.3834 48.858 31.5753 48.3516 31.6182C47.8451 31.6611 47.3373 31.553 46.8927 31.3077C46.448 31.0624 46.0865 30.6909 45.8541 30.2405C45.6217 29.79 45.5289 29.2809 45.5875 28.7777C45.6461 28.2746 45.8534 27.8002 46.1831 27.4147C46.5128 27.0292 46.9501 26.7501 47.4393 26.6128C47.9285 26.4755 48.4477 26.4861 48.9308 26.6435C49.2504 26.7444 49.5468 26.9074 49.8029 27.123C50.059 27.3386 50.2698 27.6026 50.4231 27.8998C50.5764 28.1969 50.6691 28.5213 50.696 28.8544C50.723 29.1874 50.6835 29.5225 50.5799 29.8402Z" fill="#FF0000"/>
</g>
<defs>
<clipPath id="clip0_7_214">
<rect width="210" height="100" fill="white"/>
</clipPath>
</defs>
</svg>
