<svg width="253" height="76" viewBox="0 0 253 76" fill="none" xmlns="http://www.w3.org/2000/svg">
<g style="mix-blend-mode:luminosity">
<path d="M30.6324 12.2238C24.9706 9.72376 21.5942 8.75376 18.2414 8.75376C14.7227 8.75376 12.469 10.0071 12.469 11.9438C12.469 17.7888 32.4034 16.1438 32.4034 29.6638C32.4034 37.1188 26.115 41.4504 17.3785 41.4504C10.5254 41.4504 7.15071 39.6871 3.26335 37.6904V29.3271C8.86986 33.0221 12.3015 34.3271 16.6262 34.3271C20.3761 34.3271 22.3986 33.0221 22.3986 30.7471C22.3986 24.3821 2.46411 26.7138 2.46411 12.7921C2.46411 6.07877 8.29683 1.63377 17.3785 1.63377C21.7618 1.63377 25.7162 2.54876 30.6324 4.6521V12.2238Z" fill="#009E4D"/>
<path d="M58.5426 39.6738C55.2199 40.8722 52.4099 41.4438 49.6067 41.4438C40.3222 41.4438 34.3203 36.0655 34.3203 27.8822C34.3203 19.8488 40.5552 14.1738 49.2615 14.1738C51.9508 14.1738 55.3891 14.8588 58.1388 15.8772V22.0272C55.9622 20.8772 53.4421 20.2472 51.3794 20.2472C46.3963 20.2472 43.1909 23.2255 43.1909 27.8222C43.1909 32.4838 46.3426 35.5522 51.0913 35.5522C53.0953 35.5522 54.8764 35.0955 58.5426 33.7305V39.6738Z" fill="#009E4D"/>
<path d="M130.928 24.8688C131.268 21.2188 133.399 19.1088 136.663 19.1088C139.872 19.1088 142.047 21.2788 142.391 24.8688H130.928ZM136.09 14.1822C127.944 14.1822 122.144 19.9055 122.144 27.9588C122.144 36.0722 128.175 41.4438 137.469 41.4438C139.529 41.4438 144.508 41.4438 149.252 37.9522V32.8172C145.366 35.5705 142.796 36.5188 139.478 36.5188C134.242 36.5188 131.04 33.8238 130.75 29.2238H149.72C150.113 19.6222 143.776 14.1822 136.09 14.1822Z" fill="#009E4D"/>
<path d="M152.928 40.9656H161.223V14.6672H152.928V40.9656Z" fill="#009E4D"/>
<path d="M184.304 33.7771C182.576 35.3238 181.14 35.9438 179.369 35.9438C175.463 35.9438 172.992 32.7471 172.992 27.9554C172.992 22.7054 175.463 19.6788 179.644 19.6788C181.14 19.6788 183.094 20.3638 184.304 21.2221V33.7771ZM184.304 2.11877V15.8204C182.063 14.7421 179.83 14.1738 177.415 14.1738C169.85 14.1738 164.616 19.7354 164.616 27.7838C164.616 35.6588 169.85 41.4504 176.948 41.4504C179.763 41.4504 181.938 40.7171 184.304 38.8404V40.9571H192.596V2.11877H184.304Z" fill="#009E4D"/>
<path d="M204.873 24.8688C205.218 21.2188 207.338 19.1088 210.597 19.1088C213.811 19.1088 216.007 21.2788 216.351 24.8688H204.873ZM210.031 14.1822C201.886 14.1822 196.096 19.9055 196.096 27.9588C196.096 36.0722 202.127 41.4438 211.411 41.4438C213.467 41.4438 218.457 41.4438 223.212 37.9522V32.8172C219.322 35.5705 216.746 36.5188 213.414 36.5188C208.206 36.5188 204.99 33.8238 204.701 29.2238H223.661C224.055 19.6222 217.713 14.1822 210.031 14.1822Z" fill="#009E4D"/>
<path d="M236.078 22.1971H236.2C238.661 16.7238 241.418 14.1571 244.616 14.1571C246.274 14.1571 247.703 14.7854 250.109 16.5554L247.827 23.8471C245.649 22.4804 244.218 21.9088 242.902 21.9088C239.859 21.9088 237.912 24.7621 236.078 29.5854V40.9304H227.773V14.6388H236.078V22.1971Z" fill="#009E4D"/>
<path d="M161.611 3.60379C162.39 5.64712 160.988 8.49712 158.49 9.96379C155.981 11.4288 153.331 10.9638 152.558 8.92046C151.771 6.87379 153.166 4.02045 155.671 2.56212C158.173 1.08879 160.825 1.55545 161.611 3.60379Z" fill="#009E4D"/>
<path d="M88.4165 24.2272C88.4165 17.1006 83.5473 14.1822 78.7417 14.1822C75.4743 14.1822 72.7883 15.5539 70.3855 18.5789H70.2716V2.11892H61.9691V40.8889H70.2716V24.2272C72.2136 21.4322 73.8724 20.2373 75.8178 20.2373C78.3999 20.2373 80.1157 22.0639 80.1157 25.9922V35.2306C82.9005 33.8072 85.7306 32.9339 88.4165 32.6089V24.2272Z" fill="#009E4D"/>
<path d="M109.241 14.1739C105.859 14.1739 103.277 15.4239 100.635 18.4305V14.6672H92.3358V32.5389C95.2111 32.8239 98.879 34.1356 100.635 36.3022V24.0206C102.817 20.7639 104.365 19.6789 106.429 19.6789C108.78 19.6789 110.566 21.2222 110.566 24.9305V40.8972H118.867V24.2472C118.867 16.5022 113.368 14.1739 109.241 14.1739Z" fill="#009E4D"/>
<path d="M123.451 48.4488H113.807V55.2655H123.111V58.1905H113.807V65.2221H123.74V68.1438H110.573V45.5305H123.451V48.4488Z" fill="#009E4D"/>
<path d="M131.328 68.1572H134.283V45.5239H131.328V68.1572Z" fill="#009E4D"/>
<path d="M148.909 55.4805C151.003 55.4805 152.302 56.9155 152.399 59.1705H144.876C145.283 56.8155 146.645 55.4805 148.909 55.4805ZM144.822 61.1322H155.346C155.346 55.6139 152.811 52.9505 148.842 52.9505C144.723 52.9505 141.863 55.9789 141.863 60.4955C141.863 64.6239 144.447 68.4355 149.098 68.4355C151.633 68.4355 153.272 67.8755 155.087 66.6772V63.8172C153.334 64.9589 151.633 65.6172 149.844 65.6172C146.982 65.6172 145.283 64.0905 144.822 61.1322Z" fill="#009E4D"/>
<path d="M174.637 57.1505C172.938 55.9939 171.804 55.6539 170.51 55.6539C167.806 55.6539 165.933 57.7172 165.933 60.7389C165.933 63.8172 167.927 65.6722 171.005 65.6722C172.271 65.6722 173.478 65.3455 174.967 64.6822V67.5805C173.972 68.0472 172.075 68.4355 170.51 68.4355C166.036 68.4355 162.932 65.3755 162.932 61.0022C162.932 56.0672 165.768 52.9505 170.308 52.9505C172.042 52.9505 173.208 53.3522 174.637 53.9772V57.1505Z" fill="#009E4D"/>
<path d="M188.097 53.2355H192.839V55.8839H188.097V63.5372C188.097 65.2889 189.372 65.7955 190.233 65.7955C191.303 65.7955 192.405 65.4239 193.601 64.6889V67.4455C192.564 68.0139 190.972 68.4355 189.997 68.4355C186.78 68.4355 185.153 66.4489 185.153 63.7589V55.8839H182.548V55.5555L188.097 50.1539V53.2355Z" fill="#009E4D"/>
<path d="M204.136 53.2356V56.6872H204.196C205.702 54.0456 207.135 52.9506 208.529 52.9506C209.732 52.9506 210.858 53.5122 212.097 54.6772L210.531 57.2672C209.632 56.3822 208.469 55.7722 207.767 55.7722C205.733 55.7722 204.136 57.8289 204.136 60.3772V68.1572H201.185V53.2356H204.136Z" fill="#009E4D"/>
<path d="M242.369 57.1505C240.662 55.9939 239.529 55.6539 238.227 55.6539C235.53 55.6539 233.671 57.7172 233.671 60.7389C233.671 63.8172 235.667 65.6722 238.727 65.6722C239.995 65.6722 241.195 65.3455 242.704 64.6822V67.5805C241.687 68.0472 239.789 68.4355 238.227 68.4355C233.76 68.4355 230.642 65.3755 230.642 61.0022C230.642 56.0672 233.492 52.9505 238.031 52.9505C239.769 52.9505 240.923 53.3522 242.369 53.9772V57.1505Z" fill="#009E4D"/>
<path d="M219.928 68.1572H222.882V53.2361H219.928V68.1572Z" fill="#009E4D"/>
<path d="M222.981 47.8755C223.269 48.5955 222.765 49.6138 221.877 50.1322C220.982 50.6522 220.035 50.4855 219.766 49.7638C219.496 49.0355 219.985 48.0255 220.883 47.5055C221.77 46.9788 222.711 47.1472 222.981 47.8755Z" fill="#009E4D"/>
<path d="M90.749 49.0822C90.2279 49.0822 90.0084 49.1672 89.7956 49.4039C89.7118 49.4955 89.6783 49.5889 89.6481 49.7755L86.9991 59.7689C86.3774 63.2739 82.0494 66.7739 76.4077 66.7739H68.5643L69.9248 61.6389H74.9634C75.4778 61.6389 75.8799 61.4489 76.2167 61.0755C76.3407 60.9305 76.5015 60.7039 76.5233 60.4705L78.6144 51.7389C79.231 48.2322 82.9559 44.3589 88.5959 44.3589H96.6287L95.6015 49.0822H90.749ZM92.5586 55.1722L93.4551 51.9389H101.615C102.622 47.2505 101.83 42.9072 98.9695 40.0622C93.1803 34.3039 81.0691 36.2605 72.0461 44.8472C70.6369 46.1805 69.4473 47.6222 68.3632 49.0955H73.276L72.1332 52.3355H66.2637C65.7024 53.3572 65.1762 54.3705 64.7741 55.3989H71.7345L70.6202 58.6389H63.7805C62.6109 63.5889 63.3565 68.2055 66.2989 71.1372C72.016 76.8222 84.0902 74.8239 93.1082 66.2389C94.6866 64.7455 95.9902 63.1339 97.1682 61.4789H90.8563L91.8181 58.2455H99.1973C99.7385 57.2172 100.236 56.2005 100.625 55.1722H92.5586Z" fill="#009E4D"/>
</g>
</svg>
