<svg width="249" height="73" viewBox="0 0 249 73" fill="none" xmlns="http://www.w3.org/2000/svg">
<g clip-path="url(#clip0_1_43)">
<path d="M20.4404 72.9959C16.5571 73.1082 7.25688 71.6066 1.75718 57.1397C0.186428 53.0052 -3.37367 38.975 8.35102 27.6527C8.66186 27.3574 9.02243 27.5737 9.37056 27.3033C9.61932 27.1811 9.88702 27.1023 10.1622 27.0704C11.2066 26.7959 12.682 26.7709 13.6891 27.8191C13.6891 27.8191 15.6204 29.3249 13.8093 31.0386C13.8093 31.0386 7.30247 34.2789 8.77376 36.0301C12.2261 40.1896 10.8916 39.4201 22.177 47.8473C25.907 50.6259 31.4108 57.277 31.1787 64.2401C31.0876 66.8814 29.7406 71.2656 22.409 72.8046C21.758 72.9139 21.1002 72.9779 20.4404 72.9959V72.9959Z" fill="url(#paint0_linear_1_43)"/>
<path d="M9.05972 36.4459C9.05972 36.4459 3.45226 29.2374 10.5932 26.3091C12.1059 25.6893 15.3676 27.4821 14.4931 30.3854C13.9875 32.0701 9.69382 32.4694 9.05972 36.4459Z" fill="url(#paint1_linear_1_43)"/>
<path d="M37.3871 52.7722C37.9901 54.1546 38.1589 55.6887 37.8708 57.1699C37.5828 58.651 36.8516 60.0088 35.7749 61.0622C35.0579 61.7818 34.1627 62.4224 33.3711 63.246C30.8595 65.8623 33.7068 70.9702 38.7589 68.3497C42.5179 66.3947 46.3806 57.2105 38.1165 53.0551L37.3871 52.7722Z" fill="url(#paint2_linear_1_43)"/>
<path d="M5.6695 31.3171C5.91402 30.4852 4.14848 37.5855 4.64996 43.3798C5.62805 54.6604 11.5132 67.8878 21.2278 69.8968C25.9608 70.8743 31.4646 66.407 29.9851 61.7192C27.3326 53.3086 7.19051 41.4372 5.83527 32.3819C5.82284 32.2987 5.6695 31.3171 5.6695 31.3171Z" fill="#48C4EB"/>
<path d="M5.69029 31.1424C5.74417 30.8845 5.309 34.4701 11.4925 40.6595C13.7306 42.9015 17.5642 45.3265 21.5967 48.4461C25.9816 51.8362 33.7027 62.6759 28.6133 67.0975C28.6133 67.0975 25.3889 69.951 23.2255 64.3647C23.2255 64.3647 20.6933 56.628 10.2243 45.106C8.08994 42.7559 5.06033 36.7869 5.44577 33.1307C5.4955 32.6274 5.69029 31.1424 5.69029 31.1424Z" fill="#85D0F0"/>
<path d="M23.4244 0C23.4244 0 17.5807 4.34256 23.7352 16.2222C25.0822 18.8219 21.7003 22.4615 19.0727 19.2379C18.3143 18.3103 18.1402 12.9986 18.1402 12.9986C18.1402 12.9986 4.46348 32.486 38.4481 55.3469C40.4623 56.7029 42.5511 58.6745 42.4641 61.5155C42.4226 63.0337 41.9419 64.161 39.6458 67.7299C39.6458 67.7299 62.8797 51.3828 36.1852 23.8134C35.3563 22.9815 33.2841 21.6296 33.8021 15.4943C33.8021 15.4943 29.5292 17.6281 32.5588 28.3889C32.7204 28.9754 32.9732 34.2954 27.9584 33.867C26.0396 33.7006 22.5997 32.1366 24.7879 26.4131C25.4883 24.5413 26.6364 22.7735 29.0111 19.5499C29.0111 19.5499 30.6689 16.9501 29.4256 14.4544C27.7678 11.1268 23.8637 10.245 23.2089 0.935897C23.2439 0.616523 23.3162 0.302395 23.4244 0V0Z" fill="url(#paint3_linear_1_43)"/>
</g>
<path d="M77.735 32.583V28.971C78.393 28.957 78.918 28.81 79.31 28.53C79.716 28.25 80.087 27.662 80.423 26.766C80.759 25.87 81.039 24.582 81.263 22.902L82.166 15.993H90.041V28.908H91.28V32.583H90.083V30H78.953V32.583H77.735ZM82.481 23.007C82.075 26.157 81.277 28.124 80.087 28.908H88.823V17.085H83.237L82.481 23.007ZM98.0377 30.252C96.5817 30.252 95.4057 29.741 94.5097 28.719C93.6137 27.697 93.1657 26.43 93.1657 24.918C93.1657 23.406 93.6137 22.146 94.5097 21.138C95.4057 20.116 96.5817 19.605 98.0377 19.605C99.5077 19.605 100.691 20.116 101.587 21.138C102.483 22.146 102.931 23.406 102.931 24.918C102.931 26.43 102.483 27.697 101.587 28.719C100.691 29.741 99.5077 30.252 98.0377 30.252ZM98.0377 29.265C99.1857 29.265 100.089 28.845 100.747 28.005C101.419 27.151 101.755 26.122 101.755 24.918C101.755 23.728 101.419 22.713 100.747 21.873C100.089 21.019 99.1857 20.592 98.0377 20.592C96.9037 20.592 96.0007 21.019 95.3287 21.873C94.6707 22.713 94.3417 23.728 94.3417 24.918C94.3417 26.108 94.6707 27.13 95.3287 27.984C96.0007 28.838 96.9037 29.265 98.0377 29.265ZM110.098 30.252C108.628 30.252 107.438 29.741 106.528 28.719C105.618 27.697 105.163 26.43 105.163 24.918C105.163 23.406 105.618 22.146 106.528 21.138C107.438 20.116 108.628 19.605 110.098 19.605C111.582 19.605 112.779 20.179 113.689 21.327L112.933 21.999C112.247 21.061 111.323 20.592 110.161 20.592C108.999 20.592 108.068 21.005 107.368 21.831C106.682 22.643 106.339 23.672 106.339 24.918C106.339 26.164 106.682 27.2 107.368 28.026C108.068 28.852 108.999 29.265 110.161 29.265C111.309 29.265 112.233 28.789 112.933 27.837L113.689 28.509C112.779 29.671 111.582 30.252 110.098 30.252ZM119.068 30H117.976V20.823H114.994V19.857H122.071V20.823H119.068V30ZM123.659 33.969L123.848 32.961C124.1 33.073 124.394 33.129 124.73 33.129C125.416 33.129 125.927 32.716 126.263 31.89L127.061 30.084L122.777 19.857H123.995L127.691 28.719L131.345 19.857H132.584L127.334 32.226C126.802 33.486 125.934 34.116 124.73 34.116C124.338 34.116 123.981 34.067 123.659 33.969ZM142.379 30H141.287V20.823H135.533V30H134.441V19.857H142.379V30ZM146.874 30H145.782V19.857H146.874V24.267H152.628V19.857H153.72V30H152.628V25.233H146.874V30ZM157.123 19.857H158.215V23.994H162.163C163.129 23.994 163.885 24.281 164.431 24.855C164.977 25.429 165.25 26.143 165.25 26.997C165.25 27.851 164.977 28.565 164.431 29.139C163.885 29.713 163.129 30 162.163 30H157.123V19.857ZM162.079 24.96H158.215V29.013H162.079C162.723 29.013 163.22 28.831 163.57 28.467C163.92 28.089 164.095 27.599 164.095 26.997C164.095 26.381 163.92 25.891 163.57 25.527C163.22 25.149 162.723 24.96 162.079 24.96ZM168.085 30H166.972V19.857H168.085V30ZM175.972 30.252C174.488 30.252 173.27 29.755 172.318 28.761C171.366 27.767 170.89 26.486 170.89 24.918C170.89 23.434 171.352 22.181 172.276 21.159C173.214 20.123 174.383 19.605 175.783 19.605C177.267 19.605 178.436 20.123 179.29 21.159C180.144 22.181 180.571 23.455 180.571 24.981V25.275H172.087C172.143 26.423 172.528 27.382 173.242 28.152C173.956 28.922 174.894 29.307 176.056 29.307C177.4 29.307 178.506 28.838 179.374 27.9L179.941 28.614C178.891 29.706 177.568 30.252 175.972 30.252ZM179.458 24.414C179.444 23.434 179.115 22.545 178.471 21.747C177.841 20.949 176.938 20.55 175.762 20.55C174.656 20.55 173.774 20.949 173.116 21.747C172.472 22.531 172.129 23.42 172.087 24.414H179.458ZM78.743 41.993H87.479V43.085H79.94V47.81H83.993C85.281 47.81 86.303 48.209 87.059 49.007C87.829 49.791 88.214 50.757 88.214 51.905C88.214 53.053 87.836 54.026 87.08 54.824C86.324 55.608 85.295 56 83.993 56H78.743V41.993ZM83.867 48.902H79.94V54.908H83.867C84.791 54.908 85.533 54.628 86.093 54.068C86.667 53.508 86.954 52.787 86.954 51.905C86.954 51.023 86.667 50.302 86.093 49.742C85.533 49.182 84.791 48.902 83.867 48.902ZM90.6981 45.857H91.7901V49.994H95.7381C96.7041 49.994 97.4601 50.281 98.0061 50.855C98.5521 51.429 98.8251 52.143 98.8251 52.997C98.8251 53.851 98.5521 54.565 98.0061 55.139C97.4601 55.713 96.7041 56 95.7381 56H90.6981V45.857ZM95.6541 50.96H91.7901V55.013H95.6541C96.2981 55.013 96.7951 54.831 97.1451 54.467C97.4951 54.089 97.6701 53.599 97.6701 52.997C97.6701 52.381 97.4951 51.891 97.1451 51.527C96.7951 51.149 96.2981 50.96 95.6541 50.96ZM101.66 56H100.547V45.857H101.66V56ZM107.994 56H106.902V46.823H103.92V45.857H110.997V46.823H107.994V56ZM117.541 56.252C116.085 56.252 114.909 55.741 114.013 54.719C113.117 53.697 112.669 52.43 112.669 50.918C112.669 49.406 113.117 48.146 114.013 47.138C114.909 46.116 116.085 45.605 117.541 45.605C119.011 45.605 120.194 46.116 121.09 47.138C121.986 48.146 122.434 49.406 122.434 50.918C122.434 52.43 121.986 53.697 121.09 54.719C120.194 55.741 119.011 56.252 117.541 56.252ZM117.541 55.265C118.689 55.265 119.592 54.845 120.25 54.005C120.922 53.151 121.258 52.122 121.258 50.918C121.258 49.728 120.922 48.713 120.25 47.873C119.592 47.019 118.689 46.592 117.541 46.592C116.407 46.592 115.504 47.019 114.832 47.873C114.174 48.713 113.845 49.728 113.845 50.918C113.845 52.108 114.174 53.13 114.832 53.984C115.504 54.838 116.407 55.265 117.541 55.265ZM130.546 56H125.254V45.857H130.462C131.302 45.857 131.967 46.095 132.457 46.571C132.961 47.033 133.213 47.663 133.213 48.461C133.213 49.035 133.052 49.532 132.73 49.952C132.422 50.358 132.044 50.631 131.596 50.771C132.1 50.911 132.527 51.219 132.877 51.695C133.227 52.171 133.402 52.689 133.402 53.249C133.402 54.103 133.143 54.775 132.625 55.265C132.121 55.755 131.428 56 130.546 56ZM130.315 55.013C130.917 55.013 131.386 54.852 131.722 54.53C132.072 54.194 132.247 53.739 132.247 53.165C132.247 52.647 132.072 52.199 131.722 51.821C131.386 51.443 130.917 51.254 130.315 51.254H126.346V55.013H130.315ZM130.273 50.288C130.847 50.288 131.288 50.127 131.596 49.805C131.918 49.483 132.079 49.07 132.079 48.566C132.079 48.034 131.918 47.614 131.596 47.306C131.288 46.984 130.847 46.823 130.273 46.823H126.346V50.288H130.273ZM136.615 45.857H137.707V49.994H141.655C142.621 49.994 143.377 50.281 143.923 50.855C144.469 51.429 144.742 52.143 144.742 52.997C144.742 53.851 144.469 54.565 143.923 55.139C143.377 55.713 142.621 56 141.655 56H136.615V45.857ZM141.571 50.96H137.707V55.013H141.571C142.215 55.013 142.712 54.831 143.062 54.467C143.412 54.089 143.587 53.599 143.587 52.997C143.587 52.381 143.412 51.891 143.062 51.527C142.712 51.149 142.215 50.96 141.571 50.96ZM147.577 56H146.464V45.857H147.577V56ZM155.465 56.252C153.981 56.252 152.763 55.755 151.811 54.761C150.859 53.767 150.383 52.486 150.383 50.918C150.383 49.434 150.845 48.181 151.769 47.159C152.707 46.123 153.876 45.605 155.276 45.605C156.76 45.605 157.929 46.123 158.783 47.159C159.637 48.181 160.064 49.455 160.064 50.981V51.275H151.58C151.636 52.423 152.021 53.382 152.735 54.152C153.449 54.922 154.387 55.307 155.549 55.307C156.893 55.307 157.999 54.838 158.867 53.9L159.434 54.614C158.384 55.706 157.061 56.252 155.465 56.252ZM158.951 50.414C158.937 49.434 158.608 48.545 157.964 47.747C157.334 46.949 156.431 46.55 155.255 46.55C154.149 46.55 153.267 46.949 152.609 47.747C151.965 48.531 151.622 49.42 151.58 50.414H158.951ZM167.648 59.969L167.837 58.961C168.089 59.073 168.383 59.129 168.719 59.129C169.405 59.129 169.916 58.716 170.252 57.89L171.05 56.084L166.766 45.857H167.984L171.68 54.719L175.334 45.857H176.573L171.323 58.226C170.791 59.486 169.923 60.116 168.719 60.116C168.327 60.116 167.97 60.067 167.648 59.969ZM182.777 56.252C181.307 56.252 180.117 55.741 179.207 54.719C178.297 53.697 177.842 52.43 177.842 50.918C177.842 49.406 178.297 48.146 179.207 47.138C180.117 46.116 181.307 45.605 182.777 45.605C184.261 45.605 185.458 46.179 186.368 47.327L185.612 47.999C184.926 47.061 184.002 46.592 182.84 46.592C181.678 46.592 180.747 47.005 180.047 47.831C179.361 48.643 179.018 49.672 179.018 50.918C179.018 52.164 179.361 53.2 180.047 54.026C180.747 54.852 181.678 55.265 182.84 55.265C183.988 55.265 184.912 54.789 185.612 53.837L186.368 54.509C185.458 55.671 184.261 56.252 182.777 56.252ZM187.484 56.252V55.307C188.002 55.307 188.429 54.971 188.765 54.299C189.115 53.627 189.395 52.5 189.605 50.918L190.277 45.857H196.745V56H195.653V46.823H191.264L190.697 51.044C190.445 52.934 190.067 54.278 189.563 55.076C189.059 55.86 188.366 56.252 187.484 56.252ZM199.476 59.969L199.665 58.961C199.917 59.073 200.211 59.129 200.547 59.129C201.233 59.129 201.744 58.716 202.08 57.89L202.878 56.084L198.594 45.857H199.812L203.508 54.719L207.162 45.857H208.401L203.151 58.226C202.619 59.486 201.751 60.116 200.547 60.116C200.155 60.116 199.798 60.067 199.476 59.969ZM216.916 45.857V46.823H211.351V56H210.259V45.857H216.916ZM220.23 56H219.18V45.857H220.272V54.299L226.047 45.857H227.118V56H226.026V47.432L220.23 56Z" fill="white"/>
<path d="M64 0L64 73" stroke="#D8D8D8"/>
<defs>
<linearGradient id="paint0_linear_1_43" x1="-7.2579e-05" y1="49.9562" x2="31.1829" y2="49.9562" gradientUnits="userSpaceOnUse">
<stop stop-color="#72CEFB"/>
<stop offset="0.7" stop-color="#0067BA"/>
</linearGradient>
<linearGradient id="paint1_linear_1_43" x1="6.96677" y1="31.3172" x2="14.6382" y2="31.3172" gradientUnits="userSpaceOnUse">
<stop stop-color="#0079A4"/>
<stop offset="1" stop-color="#72CEFB"/>
</linearGradient>
<linearGradient id="paint2_linear_1_43" x1="32.4427" y1="60.9249" x2="43.0194" y2="60.9249" gradientUnits="userSpaceOnUse">
<stop stop-color="#FF8600"/>
<stop offset="1" stop-color="#982A05"/>
</linearGradient>
<linearGradient id="paint3_linear_1_43" x1="15.4214" y1="33.867" x2="48.9999" y2="33.867" gradientUnits="userSpaceOnUse">
<stop stop-color="#FF8600"/>
<stop offset="1" stop-color="#DA2A00"/>
</linearGradient>
<clipPath id="clip0_1_43">
<rect width="49" height="73" fill="white"/>
</clipPath>
</defs>
</svg>
