<svg width="49" height="73" viewBox="0 0 49 73" fill="none" xmlns="http://www.w3.org/2000/svg">
<g clip-path="url(#clip0_1_30)">
<path d="M20.4404 72.9959C16.5571 73.1082 7.25688 71.6066 1.75718 57.1397C0.186428 53.0052 -3.37367 38.975 8.35102 27.6527C8.66186 27.3574 9.02243 27.5737 9.37056 27.3033C9.61932 27.1811 9.88702 27.1023 10.1622 27.0704C11.2066 26.7959 12.682 26.7709 13.6891 27.8191C13.6891 27.8191 15.6204 29.3249 13.8093 31.0386C13.8093 31.0386 7.30247 34.2789 8.77376 36.0301C12.2261 40.1896 10.8916 39.4201 22.177 47.8473C25.907 50.6259 31.4108 57.277 31.1787 64.2401C31.0876 66.8814 29.7406 71.2656 22.409 72.8046C21.758 72.9139 21.1002 72.9779 20.4404 72.9959Z" fill="url(#paint0_linear_1_30)"/>
<path d="M9.05972 36.4459C9.05972 36.4459 3.45226 29.2374 10.5932 26.3091C12.1059 25.6893 15.3676 27.4821 14.4931 30.3854C13.9875 32.0701 9.69382 32.4694 9.05972 36.4459Z" fill="url(#paint1_linear_1_30)"/>
<path d="M37.3871 52.7722C37.9901 54.1546 38.1589 55.6887 37.8708 57.1699C37.5828 58.651 36.8516 60.0088 35.7749 61.0622C35.0579 61.7818 34.1627 62.4224 33.3711 63.246C30.8595 65.8623 33.7068 70.9702 38.7589 68.3497C42.5179 66.3947 46.3806 57.2105 38.1165 53.0551L37.3871 52.7722Z" fill="url(#paint2_linear_1_30)"/>
<path d="M5.6695 31.3171C5.91402 30.4852 4.14848 37.5855 4.64996 43.3798C5.62805 54.6604 11.5132 67.8878 21.2278 69.8968C25.9608 70.8743 31.4646 66.407 29.9851 61.7192C27.3326 53.3086 7.19051 41.4372 5.83527 32.3819C5.82284 32.2987 5.6695 31.3171 5.6695 31.3171Z" fill="#48C4EB"/>
<path d="M5.69029 31.1424C5.74417 30.8845 5.309 34.4701 11.4925 40.6595C13.7306 42.9015 17.5642 45.3265 21.5967 48.4461C25.9816 51.8362 33.7027 62.6759 28.6133 67.0975C28.6133 67.0975 25.3889 69.951 23.2255 64.3647C23.2255 64.3647 20.6933 56.628 10.2243 45.106C8.08994 42.7559 5.06033 36.7869 5.44577 33.1307C5.4955 32.6274 5.69029 31.1424 5.69029 31.1424Z" fill="#85D0F0"/>
<path d="M23.4244 0C23.4244 0 17.5807 4.34256 23.7352 16.2222C25.0822 18.8219 21.7003 22.4615 19.0727 19.2379C18.3143 18.3103 18.1402 12.9986 18.1402 12.9986C18.1402 12.9986 4.46348 32.486 38.4481 55.3469C40.4623 56.7029 42.5511 58.6745 42.4641 61.5155C42.4226 63.0337 41.9419 64.161 39.6458 67.7299C39.6458 67.7299 62.8797 51.3828 36.1852 23.8134C35.3563 22.9815 33.2841 21.6296 33.8021 15.4943C33.8021 15.4943 29.5292 17.6281 32.5588 28.3889C32.7204 28.9754 32.9732 34.2954 27.9584 33.867C26.0396 33.7006 22.5997 32.1366 24.7879 26.4131C25.4883 24.5413 26.6364 22.7735 29.0111 19.5499C29.0111 19.5499 30.6689 16.9501 29.4256 14.4544C27.7678 11.1268 23.8637 10.245 23.2089 0.935897C23.2439 0.616523 23.3162 0.302395 23.4244 0V0Z" fill="url(#paint3_linear_1_30)"/>
</g>
<defs>
<linearGradient id="paint0_linear_1_30" x1="-7.2579e-05" y1="49.9562" x2="31.1829" y2="49.9562" gradientUnits="userSpaceOnUse">
<stop stop-color="#72CEFB"/>
<stop offset="0.7" stop-color="#0067BA"/>
</linearGradient>
<linearGradient id="paint1_linear_1_30" x1="6.96677" y1="31.3172" x2="14.6382" y2="31.3172" gradientUnits="userSpaceOnUse">
<stop stop-color="#0079A4"/>
<stop offset="1" stop-color="#72CEFB"/>
</linearGradient>
<linearGradient id="paint2_linear_1_30" x1="32.4427" y1="60.9249" x2="43.0194" y2="60.9249" gradientUnits="userSpaceOnUse">
<stop stop-color="#FF8600"/>
<stop offset="1" stop-color="#982A05"/>
</linearGradient>
<linearGradient id="paint3_linear_1_30" x1="15.4214" y1="33.867" x2="48.9999" y2="33.867" gradientUnits="userSpaceOnUse">
<stop stop-color="#FF8600"/>
<stop offset="1" stop-color="#DA2A00"/>
</linearGradient>
<clipPath id="clip0_1_30">
<rect width="49" height="73" fill="white"/>
</clipPath>
</defs>
</svg>
