<svg width="80" height="80" viewBox="0 0 80 80" fill="none" xmlns="http://www.w3.org/2000/svg">
<path d="M26.6667 73.3333H53.3333C66.7333 73.3333 69.1333 67.9667 69.8333 61.4333L72.3333 34.7667C73.2333 26.6333 70.9 20 56.6667 20H23.3333C9.09999 20 6.76666 26.6333 7.66666 34.7667L10.1667 61.4333C10.8667 67.9667 13.2667 73.3333 26.6667 73.3333Z" stroke="#FF7A00" stroke-width="1.5" stroke-miterlimit="10" stroke-linecap="round" stroke-linejoin="round"/>
<path d="M26.6667 20V17.3333C26.6667 11.4333 26.6667 6.66663 37.3334 6.66663H42.6667C53.3334 6.66663 53.3334 11.4333 53.3334 17.3333V20" stroke="#FF7A00" stroke-width="1.5" stroke-miterlimit="10" stroke-linecap="round" stroke-linejoin="round"/>
<path d="M46.6666 43.3333V46.6667C46.6666 46.7 46.6666 46.7 46.6666 46.7333C46.6666 50.3667 46.6333 53.3333 40 53.3333C33.4 53.3333 33.3333 50.4 33.3333 46.7667V43.3333C33.3333 40 33.3333 40 36.6666 40H43.3333C46.6666 40 46.6666 40 46.6666 43.3333Z" stroke="#FF7A00" stroke-width="1.5" stroke-miterlimit="10" stroke-linecap="round" stroke-linejoin="round"/>
<path d="M72.1667 36.6666C64.4667 42.2666 55.6667 45.6 46.6667 46.7333" stroke="#FF7A00" stroke-width="1.5" stroke-miterlimit="10" stroke-linecap="round" stroke-linejoin="round"/>
<path d="M8.73334 37.5667C16.2333 42.7 24.7 45.8 33.3333 46.7666" stroke="#FF7A00" stroke-width="1.5" stroke-miterlimit="10" stroke-linecap="round" stroke-linejoin="round"/>
</svg>
