<svg width="80" height="80" viewBox="0 0 80 80" fill="none" xmlns="http://www.w3.org/2000/svg">
<path d="M72.2 34.7999L68.9333 48.7333C66.1333 60.7666 60.6 65.6333 50.2 64.6333C48.5333 64.4999 46.7333 64.1999 44.8 63.7333L39.2 62.3999C25.3 59.0999 21 52.2333 24.2667 38.2999L27.5333 24.3333C28.2 21.4999 29 19.0333 30 16.9999C33.9 8.93328 40.5333 6.76661 51.6667 9.39995L57.2333 10.6999C71.2 13.9666 75.4667 20.8666 72.2 34.7999Z" stroke="#FF7A00" stroke-width="1.5" stroke-linecap="round" stroke-linejoin="round"/>
<path d="M50.2 64.6333C48.1333 66.0333 45.5333 67.2 42.3666 68.2333L37.1 69.9667C23.8666 74.2333 16.9 70.6667 12.6 57.4333L8.33331 44.2667C4.06664 31.0333 7.59998 24.0333 20.8333 19.7667L26.1 18.0333C27.4666 17.6 28.7666 17.2333 30 17C29 19.0333 28.2 21.5 27.5333 24.3333L24.2666 38.3C21 52.2333 25.3 59.1 39.2 62.4L44.8 63.7333C46.7333 64.2 48.5333 64.5 50.2 64.6333Z" stroke="#FF7A00" stroke-width="1.5" stroke-linecap="round" stroke-linejoin="round"/>
<path d="M42.1334 28.4333L58.3 32.5334" stroke="#FF7A00" stroke-width="1.5" stroke-linecap="round" stroke-linejoin="round"/>
<path d="M38.8666 41.3334L48.5333 43.8" stroke="#FF7A00" stroke-width="1.5" stroke-linecap="round" stroke-linejoin="round"/>
</svg>
