<svg width="80" height="80" viewBox="0 0 80 80" fill="none" xmlns="http://www.w3.org/2000/svg">
<path d="M73.3334 20V28.0666C73.3334 33.3333 70 36.6666 64.7334 36.6666H53.3334V13.3666C53.3334 9.66662 56.3667 6.66663 60.0667 6.66663C63.7 6.69996 67.0334 8.16662 69.4334 10.5666C71.8334 13 73.3334 16.3333 73.3334 20Z" stroke="#FF7A00" stroke-width="1.5" stroke-miterlimit="10" stroke-linecap="round" stroke-linejoin="round"/>
<path d="M6.66663 23.3333V70C6.66663 72.7666 9.79996 74.3333 12 72.6666L17.7 68.4C19.0333 67.4 20.9 67.5333 22.1 68.7333L27.6333 74.3C28.9333 75.6 31.0666 75.6 32.3666 74.3L37.9666 68.7C39.1333 67.5333 41 67.4 42.3 68.4L48 72.6666C50.2 74.3 53.3333 72.7333 53.3333 70V13.3333C53.3333 9.66663 56.3333 6.66663 60 6.66663H23.3333H20C9.99996 6.66663 6.66663 12.6333 6.66663 20V23.3333Z" stroke="#FF7A00" stroke-width="1.5" stroke-miterlimit="10" stroke-linecap="round" stroke-linejoin="round"/>
<path d="M30 43.3667H40" stroke="#FF7A00" stroke-width="1.5" stroke-linecap="round" stroke-linejoin="round"/>
<path d="M30 30.0333H40" stroke="#FF7A00" stroke-width="1.5" stroke-linecap="round" stroke-linejoin="round"/>
<path d="M19.9854 43.3334H20.0153" stroke="#FF7A00" stroke-width="2" stroke-linecap="round" stroke-linejoin="round"/>
<path d="M19.9854 30H20.0153" stroke="#FF7A00" stroke-width="2" stroke-linecap="round" stroke-linejoin="round"/>
</svg>
