<svg width="80" height="80" viewBox="0 0 80 80" fill="none" xmlns="http://www.w3.org/2000/svg">
<path d="M73.3333 30V50C73.3333 58.3333 71.6667 64.1667 67.9333 67.9334L46.6667 46.6667L72.4334 20.9C73.0334 23.5334 73.3333 26.5333 73.3333 30Z" stroke="#FF7A00" stroke-width="1.5" stroke-linecap="round" stroke-linejoin="round"/>
<path d="M72.4334 20.9L20.9 72.4333C10.8666 70.1333 6.66666 63.2 6.66666 50V30C6.66666 13.3333 13.3333 6.66663 30 6.66663H50C63.2 6.66663 70.1334 10.8666 72.4334 20.9Z" stroke="#FF7A00" stroke-width="1.5" stroke-linecap="round" stroke-linejoin="round"/>
<path d="M67.9333 67.9333C64.1667 71.6666 58.3333 73.3333 50 73.3333H30C26.5333 73.3333 23.5333 73.0333 20.9 72.4333L46.6667 46.6666L67.9333 67.9333Z" stroke="#FF7A00" stroke-width="1.5" stroke-linecap="round" stroke-linejoin="round"/>
<path d="M20.8 26.6C23.0666 16.8334 37.7333 16.8334 40 26.6C41.3 32.3334 37.6999 37.2 34.5333 40.2C32.2333 42.4 28.6 42.4 26.2667 40.2C23.1 37.2 19.4666 32.3334 20.8 26.6Z" stroke="#FF7A00" stroke-width="1.5"/>
<path d="M30.3153 29H30.3453" stroke="#FF7A00" stroke-width="2" stroke-linecap="round" stroke-linejoin="round"/>
</svg>
