<svg width="277" height="70" viewBox="0 0 277 70" fill="none" xmlns="http://www.w3.org/2000/svg">
<g style="mix-blend-mode:luminosity">
<path d="M13.7946 0V17.0558H16.7751V0H13.7946ZM18.4482 4.04696V17.0108H31.8772V50.9308H44.0984V4.04696H18.4482ZM0 4.10332V50.9872H25.6059V38.0234H12.1769V4.10332H0ZM27.279 37.967V55.0792H30.2484V37.967H27.279Z" fill="#19171A"/>
<path d="M60.0425 2.7168V53.332H70.8455V2.7168H60.0425ZM250.497 2.7168V19.5134C248.17 17.7886 244.392 17.5068 244.392 17.5068C232.758 17.2024 227.794 27.2127 227.827 35.0474C227.738 45.317 234.397 53.704 244.347 52.9036C246.663 52.6556 248.569 51.7312 250.497 50.1868V53.332H261.787V2.7168H250.497ZM90.2909 14.9479C81.438 14.9479 72.7402 22.3541 72.7402 34.0216C72.7513 47.1544 80.8286 54.7636 91.4987 54.4367C99.6425 54.1662 105.282 48.9243 107.332 41.5744H96.1966C95.6315 42.7468 94.0692 44.122 90.8117 44.122C86.6456 44.122 84.4407 40.9769 84.4407 37.8543H107.952C109.293 24.2254 100.662 14.9479 90.2909 14.9479ZM169.302 15.6806C163.618 15.6806 158.954 20.1108 158.954 20.1108V16.3344H147.364V53.332H158.954V34.4499C159.031 25.2287 169.302 24.5636 169.302 24.5636V15.6806ZM171.962 15.6806V24.3043C171.962 24.3043 172.959 24.0563 177.147 24.1916C182.465 24.3945 181.845 28.8135 181.845 28.8135C181.845 28.8135 179.252 27.2015 175.518 27.1677C171.441 27.0662 163.253 29.6026 163.253 40.6275C163.231 50.3334 170.887 53.1629 175.419 53.1629C179.784 53.1629 182.31 50.9872 182.31 50.9872V53.332H192.859C192.859 53.332 192.859 33.4128 192.859 28.1146C192.859 23.2221 191.972 21.8919 189.778 19.4119C186.709 15.9737 179.43 15.6806 179.43 15.6806H171.962ZM133.713 16.2781V20.1559C126.246 12.4678 108.806 18.0254 109.426 35.363C109.958 51.596 126.833 56.4771 133.713 50.1868V54.4818C133.68 59.4081 127.764 59.239 127.764 59.239C122.6 58.991 121.492 55.6655 121.492 55.6655H108.473C111.199 74.153 143.087 74.8632 144.583 57.1535V16.2781H133.713ZM195.374 16.2781V53.332H206.509V31.4739C206.509 26.1982 214.764 25.8375 214.764 31.4739V53.332H225.733V25.6345C225.733 20.0432 218.575 11.8253 206.509 19.7839V16.2781H195.374ZM90.2909 24.6651C93.4044 24.6651 95.9639 27.0324 96.2963 30.0873H84.2967C84.6401 27.0324 87.1885 24.6651 90.2909 24.6651ZM126.977 27.7087C130.855 27.7087 134.035 30.9102 134.035 34.867C134.035 38.8351 130.855 42.0027 126.977 42.0027C123.088 42.0027 119.974 38.8351 119.974 34.867C119.974 30.9102 123.088 27.7087 126.977 27.7087ZM244.225 28.0131C248.092 28.0131 251.228 31.2372 251.228 35.1939C251.228 39.1282 248.092 42.3184 244.225 42.3184C240.347 42.3184 237.223 39.1282 237.223 35.1939C237.234 31.2372 240.347 28.0131 244.225 28.0131ZM177.756 34.9234C180.338 34.9234 182.41 37.099 182.41 39.7256C182.41 42.3635 180.338 44.449 177.756 44.449C175.175 44.449 173.059 42.3635 173.059 39.7256C173.059 37.099 175.175 34.9234 177.756 34.9234Z" fill="#E0001A"/>
<path d="M270.662 2.77319C267.216 2.77319 264.347 5.68159 264.347 9.19873C264.347 12.761 267.216 15.6355 270.662 15.6355C274.175 15.6355 277 12.761 277 9.19873C277 5.68159 274.152 2.77319 270.662 2.77319ZM270.662 3.67502C273.676 3.67502 276.114 6.18887 276.114 9.19873C276.114 12.2424 273.654 14.6773 270.662 14.6773C267.682 14.6773 265.244 12.2424 265.244 9.19873C265.233 6.18887 267.671 3.67502 270.662 3.67502ZM268.158 5.74923V12.5017H269.056V9.57073H271.194C272.247 9.57073 272.402 10.2358 272.402 10.7995C272.402 11.0588 272.402 12.0959 272.557 12.5017H273.654V12.3326C273.366 12.1635 273.299 12.0395 273.288 11.6562L273.233 10.4275C273.2 9.49182 272.823 9.30018 272.446 9.15364C272.867 8.89436 273.388 8.55617 273.388 7.55289C273.388 6.12123 272.247 5.74923 271.194 5.74923H268.158ZM269.056 6.49324H271.25C271.715 6.49324 272.446 6.62851 272.446 7.65434C272.446 8.65763 271.77 8.82672 271.094 8.82672H269.056V6.49324Z" fill="#888689"/>
</g>
</svg>
