<svg width="205" height="182" viewBox="0 0 205 182" fill="none" xmlns="http://www.w3.org/2000/svg">
<circle cx="2.00735" cy="2.00735" r="2.00735" fill="#FF7A00"/>
<circle cx="2.00735" cy="159.919" r="2.00735" fill="#FF7A00"/>
<circle cx="2.00735" cy="22.0811" r="2.00735" fill="#FF7A00"/>
<circle cx="2.00735" cy="179.993" r="2.00735" fill="#FF7A00"/>
<circle cx="2.00735" cy="42.1543" r="2.00735" fill="#FF7A00"/>
<circle cx="2.00735" cy="62.2281" r="2.00735" fill="#FF7A00"/>
<circle cx="2.00735" cy="82.3013" r="2.00735" fill="#FF7A00"/>
<circle cx="2.00735" cy="102.375" r="2.00735" fill="#FF7A00"/>
<circle cx="2.00735" cy="122.449" r="2.00735" fill="#FF7A00"/>
<circle cx="2.00735" cy="142.522" r="2.00735" fill="#FF7A00"/>
<circle cx="22.0808" cy="2.00735" r="2.00735" fill="#FF7A00"/>
<circle cx="22.0808" cy="159.919" r="2.00735" fill="#FF7A00"/>
<circle cx="22.0808" cy="22.0811" r="2.00735" fill="#FF7A00"/>
<circle cx="22.0808" cy="179.993" r="2.00735" fill="#FF7A00"/>
<circle cx="22.0808" cy="42.1543" r="2.00735" fill="#FF7A00"/>
<circle cx="22.0808" cy="62.2281" r="2.00735" fill="#FF7A00"/>
<circle cx="22.0808" cy="82.3013" r="2.00735" fill="#FF7A00"/>
<circle cx="22.0808" cy="102.375" r="2.00735" fill="#FF7A00"/>
<circle cx="22.0808" cy="122.449" r="2.00735" fill="#FF7A00"/>
<circle cx="22.0808" cy="142.522" r="2.00735" fill="#FF7A00"/>
<circle cx="42.1544" cy="2.00735" r="2.00735" fill="#FF7A00"/>
<circle cx="42.1544" cy="159.919" r="2.00735" fill="#FF7A00"/>
<circle cx="42.1544" cy="22.0811" r="2.00735" fill="#FF7A00"/>
<circle cx="42.1544" cy="179.993" r="2.00735" fill="#FF7A00"/>
<circle cx="42.1544" cy="42.1543" r="2.00735" fill="#FF7A00"/>
<circle cx="42.1544" cy="62.2281" r="2.00735" fill="#FF7A00"/>
<circle cx="42.1544" cy="82.3013" r="2.00735" fill="#FF7A00"/>
<circle cx="42.1544" cy="102.375" r="2.00735" fill="#FF7A00"/>
<circle cx="42.1544" cy="122.449" r="2.00735" fill="#FF7A00"/>
<circle cx="42.1544" cy="142.522" r="2.00735" fill="#FF7A00"/>
<circle cx="62.2279" cy="2.00735" r="2.00735" fill="#FF7A00"/>
<circle cx="62.2279" cy="159.919" r="2.00735" fill="#FF7A00"/>
<circle cx="62.2279" cy="22.0811" r="2.00735" fill="#FF7A00"/>
<circle cx="62.2279" cy="179.993" r="2.00735" fill="#FF7A00"/>
<circle cx="62.2279" cy="42.1543" r="2.00735" fill="#FF7A00"/>
<circle cx="62.2279" cy="62.2281" r="2.00735" fill="#FF7A00"/>
<circle cx="62.2279" cy="82.3013" r="2.00735" fill="#FF7A00"/>
<circle cx="62.2279" cy="102.375" r="2.00735" fill="#FF7A00"/>
<circle cx="62.2279" cy="122.449" r="2.00735" fill="#FF7A00"/>
<circle cx="62.2279" cy="142.522" r="2.00735" fill="#FF7A00"/>
<circle cx="82.3014" cy="2.00735" r="2.00735" fill="#FF7A00"/>
<circle cx="82.3014" cy="159.919" r="2.00735" fill="#FF7A00"/>
<circle cx="82.3014" cy="22.0811" r="2.00735" fill="#FF7A00"/>
<circle cx="82.3014" cy="179.993" r="2.00735" fill="#FF7A00"/>
<circle cx="82.3014" cy="42.1543" r="2.00735" fill="#FF7A00"/>
<circle cx="82.3014" cy="62.2281" r="2.00735" fill="#FF7A00"/>
<circle cx="82.3014" cy="82.3013" r="2.00735" fill="#FF7A00"/>
<circle cx="82.3014" cy="102.375" r="2.00735" fill="#FF7A00"/>
<circle cx="82.3014" cy="122.449" r="2.00735" fill="#FF7A00"/>
<circle cx="82.3014" cy="142.522" r="2.00735" fill="#FF7A00"/>
<circle cx="102.375" cy="2.00735" r="2.00735" fill="#FF7A00"/>
<circle cx="162.596" cy="2.00735" r="2.00735" fill="#FF7A00"/>
<circle cx="102.375" cy="159.919" r="2.00735" fill="#FF7A00"/>
<circle cx="162.596" cy="159.919" r="2.00735" fill="#FF7A00"/>
<circle cx="102.375" cy="22.0811" r="2.00735" fill="#FF7A00"/>
<circle cx="162.596" cy="22.0811" r="2.00735" fill="#FF7A00"/>
<circle cx="102.375" cy="179.993" r="2.00735" fill="#FF7A00"/>
<circle cx="162.596" cy="179.993" r="2.00735" fill="#FF7A00"/>
<circle cx="102.375" cy="42.1543" r="2.00735" fill="#FF7A00"/>
<circle cx="162.596" cy="42.1543" r="2.00735" fill="#FF7A00"/>
<circle cx="102.375" cy="62.2281" r="2.00735" fill="#FF7A00"/>
<circle cx="162.596" cy="62.2281" r="2.00735" fill="#FF7A00"/>
<circle cx="102.375" cy="82.3013" r="2.00735" fill="#FF7A00"/>
<circle cx="162.596" cy="82.3013" r="2.00735" fill="#FF7A00"/>
<circle cx="102.375" cy="102.375" r="2.00735" fill="#FF7A00"/>
<circle cx="162.596" cy="102.375" r="2.00735" fill="#FF7A00"/>
<circle cx="102.375" cy="122.449" r="2.00735" fill="#FF7A00"/>
<circle cx="162.596" cy="122.449" r="2.00735" fill="#FF7A00"/>
<circle cx="102.375" cy="142.522" r="2.00735" fill="#FF7A00"/>
<circle cx="162.596" cy="142.522" r="2.00735" fill="#FF7A00"/>
<circle cx="122.449" cy="2.00735" r="2.00735" fill="#FF7A00"/>
<circle cx="182.669" cy="2.00735" r="2.00735" fill="#FF7A00"/>
<circle cx="122.449" cy="159.919" r="2.00735" fill="#FF7A00"/>
<circle cx="182.669" cy="159.919" r="2.00735" fill="#FF7A00"/>
<circle cx="122.449" cy="22.0811" r="2.00735" fill="#FF7A00"/>
<circle cx="182.669" cy="22.0811" r="2.00735" fill="#FF7A00"/>
<circle cx="122.449" cy="179.993" r="2.00735" fill="#FF7A00"/>
<circle cx="182.669" cy="179.993" r="2.00735" fill="#FF7A00"/>
<circle cx="122.449" cy="42.1543" r="2.00735" fill="#FF7A00"/>
<circle cx="182.669" cy="42.1543" r="2.00735" fill="#FF7A00"/>
<circle cx="122.449" cy="62.2281" r="2.00735" fill="#FF7A00"/>
<circle cx="182.669" cy="62.2281" r="2.00735" fill="#FF7A00"/>
<circle cx="122.449" cy="82.3013" r="2.00735" fill="#FF7A00"/>
<circle cx="182.669" cy="82.3013" r="2.00735" fill="#FF7A00"/>
<circle cx="122.449" cy="102.375" r="2.00735" fill="#FF7A00"/>
<circle cx="182.669" cy="102.375" r="2.00735" fill="#FF7A00"/>
<circle cx="122.449" cy="122.449" r="2.00735" fill="#FF7A00"/>
<circle cx="182.669" cy="122.449" r="2.00735" fill="#FF7A00"/>
<circle cx="122.449" cy="142.522" r="2.00735" fill="#FF7A00"/>
<circle cx="182.669" cy="142.522" r="2.00735" fill="#FF7A00"/>
<circle cx="142.522" cy="2.00735" r="2.00735" fill="#FF7A00"/>
<circle cx="202.743" cy="2.00735" r="2.00735" fill="#FF7A00"/>
<circle cx="142.522" cy="159.919" r="2.00735" fill="#FF7A00"/>
<circle cx="202.743" cy="159.919" r="2.00735" fill="#FF7A00"/>
<circle cx="142.522" cy="22.0811" r="2.00735" fill="#FF7A00"/>
<circle cx="202.743" cy="22.0811" r="2.00735" fill="#FF7A00"/>
<circle cx="142.522" cy="179.993" r="2.00735" fill="#FF7A00"/>
<circle cx="202.743" cy="179.993" r="2.00735" fill="#FF7A00"/>
<circle cx="142.522" cy="42.1543" r="2.00735" fill="#FF7A00"/>
<circle cx="202.743" cy="42.1543" r="2.00735" fill="#FF7A00"/>
<circle cx="142.522" cy="62.2281" r="2.00735" fill="#FF7A00"/>
<circle cx="202.743" cy="62.2281" r="2.00735" fill="#FF7A00"/>
<circle cx="142.522" cy="82.3013" r="2.00735" fill="#FF7A00"/>
<circle cx="202.743" cy="82.3013" r="2.00735" fill="#FF7A00"/>
<circle cx="142.522" cy="102.375" r="2.00735" fill="#FF7A00"/>
<circle cx="202.743" cy="102.375" r="2.00735" fill="#FF7A00"/>
<circle cx="142.522" cy="122.449" r="2.00735" fill="#FF7A00"/>
<circle cx="202.743" cy="122.449" r="2.00735" fill="#FF7A00"/>
<circle cx="142.522" cy="142.522" r="2.00735" fill="#FF7A00"/>
<circle cx="202.743" cy="142.522" r="2.00735" fill="#FF7A00"/>
</svg>
