<svg xmlns="http://www.w3.org/2000/svg" xmlns:xlink="http://www.w3.org/1999/xlink"><symbol id="address" viewBox="0 0 55 55">
<path d="M8.29585 19.4564C12.8104 -0.389415 42.2125 -0.366498 46.7042 19.4793C49.3396 31.121 42.0979 40.9752 35.75 47.071C31.1438 51.5168 23.8563 51.5168 19.2271 47.071C12.9021 40.9752 5.66043 31.0981 8.29585 19.4564Z" stroke="currentColor" stroke-width="2"/>
<path d="M21.1979 26.3542L24.6354 29.7917L33.8021 20.625" stroke="currentColor" stroke-width="2" stroke-linecap="round" stroke-linejoin="round"/>
</symbol><symbol id="btn-arrow" viewBox="0 0 42 8">
<path d="M41.8536 4.35355C42.0488 4.15829 42.0488 3.84171 41.8536 3.64645L38.6716 0.464466C38.4763 0.269204 38.1597 0.269204 37.9645 0.464466C37.7692 0.659728 37.7692 0.976311 37.9645 1.17157L40.7929 4L37.9645 6.82843C37.7692 7.02369 37.7692 7.34027 37.9645 7.53553C38.1597 7.7308 38.4763 7.7308 38.6716 7.53553L41.8536 4.35355ZM0 4.5H41.5V3.5H0V4.5Z"/>
</symbol><symbol id="email" viewBox="0 0 53 53">
<path d="M37.5417 45.2707H15.4583C8.83332 45.2707 4.41666 41.9582 4.41666 34.229V18.7707C4.41666 11.0415 8.83332 7.729 15.4583 7.729H37.5417C44.1667 7.729 48.5833 11.0415 48.5833 18.7707V34.229C48.5833 41.9582 44.1667 45.2707 37.5417 45.2707Z" stroke="currentColor" stroke-width="2" stroke-miterlimit="10" stroke-linecap="round" stroke-linejoin="round"/>
<path d="M37.5417 19.875L30.6296 25.3958C28.355 27.2067 24.6229 27.2067 22.3483 25.3958L15.4583 19.875" stroke="currentColor" stroke-width="2" stroke-miterlimit="10" stroke-linecap="round" stroke-linejoin="round"/>
</symbol><symbol id="hours" viewBox="0 0 55 55">
<path d="M50.4167 27.5002C50.4167 40.1502 40.15 50.4168 27.5 50.4168C14.85 50.4168 4.58334 40.1502 4.58334 27.5002C4.58334 14.8502 14.85 4.5835 27.5 4.5835C40.15 4.5835 50.4167 14.8502 50.4167 27.5002Z" stroke="currentColor" stroke-width="2" stroke-linecap="round" stroke-linejoin="round"/>
<path d="M36.0021 34.7875L28.8979 30.5479C27.6604 29.8146 26.6521 28.05 26.6521 26.6063V17.2104" stroke="currentColor" stroke-width="2" stroke-linecap="round" stroke-linejoin="round"/>
</symbol><symbol id="name" viewBox="0 0 55 55">
<path d="M18.3333 50.4167H36.6667C45.8792 50.4167 47.5292 46.7271 48.0104 42.2354L49.7292 23.9021C50.3479 18.3104 48.7438 13.75 38.9583 13.75H16.0417C6.25626 13.75 4.65209 18.3104 5.27084 23.9021L6.98959 42.2354C7.47084 46.7271 9.12084 50.4167 18.3333 50.4167Z" stroke="currentColor" stroke-width="1.5" stroke-miterlimit="10" stroke-linecap="round" stroke-linejoin="round"/>
<path d="M18.3333 13.7502V11.9168C18.3333 7.86058 18.3333 4.5835 25.6667 4.5835H29.3333C36.6667 4.5835 36.6667 7.86058 36.6667 11.9168V13.7502" stroke="currentColor" stroke-width="1.5" stroke-miterlimit="10" stroke-linecap="round" stroke-linejoin="round"/>
<path d="M32.0833 29.7917V32.0833C32.0833 32.1063 32.0833 32.1063 32.0833 32.1292C32.0833 34.6271 32.0604 36.6667 27.5 36.6667C22.9625 36.6667 22.9167 34.65 22.9167 32.1521V29.7917C22.9167 27.5 22.9167 27.5 25.2083 27.5H29.7917C32.0833 27.5 32.0833 27.5 32.0833 29.7917Z" stroke="currentColor" stroke-width="1.5" stroke-miterlimit="10" stroke-linecap="round" stroke-linejoin="round"/>
<path d="M49.6146 25.2085C44.3208 29.0585 38.2708 31.3502 32.0833 32.1293" stroke="currentColor" stroke-width="1.5" stroke-miterlimit="10" stroke-linecap="round" stroke-linejoin="round"/>
<path d="M6.00418 25.8271C11.1604 29.3563 16.9813 31.4876 22.9167 32.1521" stroke="currentColor" stroke-width="1.5" stroke-miterlimit="10" stroke-linecap="round" stroke-linejoin="round"/>
</symbol><symbol id="tel" viewBox="0 0 55 55">
<path d="M50.3479 42.0064C50.3479 42.8314 50.1646 43.6793 49.775 44.5043C49.3854 45.3293 48.8813 46.1085 48.2167 46.8418C47.0938 48.0793 45.8563 48.9731 44.4583 49.546C43.0833 50.1189 41.5938 50.4168 39.9896 50.4168C37.6521 50.4168 35.1542 49.8668 32.5188 48.7439C29.8833 47.621 27.2479 46.1085 24.6354 44.2064C22 42.2814 19.5021 40.1502 17.1188 37.7897C14.7583 35.4064 12.6271 32.9085 10.725 30.296C8.84584 27.6835 7.33334 25.071 6.23334 22.4814C5.13334 19.8689 4.58334 17.371 4.58334 14.9877C4.58334 13.4293 4.85834 11.9397 5.40834 10.5647C5.95834 9.16683 6.82918 7.8835 8.04376 6.73766C9.51043 5.29391 11.1146 4.5835 12.8104 4.5835C13.4521 4.5835 14.0938 4.721 14.6667 4.996C15.2625 5.271 15.7896 5.6835 16.2021 6.27933L21.5188 13.7731C21.9313 14.346 22.2292 14.8731 22.4354 15.3772C22.6417 15.8585 22.7563 16.3397 22.7563 16.7752C22.7563 17.3252 22.5958 17.8752 22.275 18.4022C21.9771 18.9293 21.5417 19.4793 20.9917 20.0293L19.25 21.8397C18.9979 22.0918 18.8833 22.3897 18.8833 22.7564C18.8833 22.9397 18.9063 23.1002 18.9521 23.2835C19.0208 23.4668 19.0896 23.6043 19.1354 23.7418C19.5479 24.4981 20.2583 25.4835 21.2667 26.6752C22.2979 27.8668 23.3979 29.0814 24.5896 30.296C25.8271 31.5106 27.0188 32.6335 28.2333 33.6647C29.425 34.6731 30.4104 35.3606 31.1896 35.7731C31.3042 35.8189 31.4417 35.8877 31.6021 35.9564C31.7854 36.0252 31.9688 36.0481 32.175 36.0481C32.5646 36.0481 32.8625 35.9106 33.1146 35.6585L34.8563 33.9397C35.4292 33.3668 35.9792 32.9314 36.5063 32.6564C37.0333 32.3356 37.5604 32.1752 38.1333 32.1752C38.5688 32.1752 39.0271 32.2668 39.5313 32.4731C40.0354 32.6793 40.5625 32.9772 41.1354 33.3668L48.7208 38.7522C49.3167 39.1647 49.7292 39.646 49.9813 40.2189C50.2104 40.7918 50.3479 41.3647 50.3479 42.0064Z" stroke="currentColor" stroke-width="2" stroke-miterlimit="10"/>
<path d="M42.3958 20.6253C42.3958 19.2503 41.3187 17.142 39.7146 15.4232C38.2479 13.842 36.3 12.6045 34.375 12.6045" stroke="currentColor" stroke-width="2" stroke-linecap="round" stroke-linejoin="round"/>
<path d="M50.4167 20.6252C50.4167 11.7564 43.2438 4.5835 34.375 4.5835" stroke="currentColor" stroke-width="2" stroke-linecap="round" stroke-linejoin="round"/>
</symbol><symbol id="tg" viewBox="0 0 24 18">
<path d="M1.65128 7.83905L15.3516 2.49635C16.704 1.93981 21.2904 0.15891 21.2904 0.15891C21.2904 0.15891 23.4072 -0.620235 23.2308 1.27197C23.172 2.05112 22.7016 4.77813 22.2312 7.72775L20.7612 16.4653C20.7612 16.4653 20.6436 17.7453 19.644 17.9679C18.6444 18.1906 16.998 17.1888 16.704 16.9662C16.4688 16.7992 12.294 14.2948 10.7652 13.0705C10.3536 12.7365 9.88324 12.0687 10.824 11.2896C12.9408 9.453 15.4692 7.17122 16.998 5.72423C17.7036 5.05639 18.4092 3.4981 15.4692 5.39031L7.17845 10.6774C7.17845 10.6774 6.23766 11.2339 4.47367 10.733C2.70968 10.2321 0.651688 9.56431 0.651688 9.56431C0.651688 9.56431 -0.759505 8.72951 1.65128 7.83905Z"/>
</symbol><symbol id="wa" viewBox="0 0 21 20">
<path d="M20.2244 9.41044C19.8844 3.61044 14.6144 -0.85955 8.54443 0.14045C4.36443 0.83045 1.01443 4.22043 0.364433 8.40043C-0.0155667 10.8204 0.484455 13.1104 1.57446 15.0004L0.684441 18.3104C0.484441 19.0604 1.17442 19.7404 1.91442 19.5304L5.17443 18.6304C6.65443 19.5004 8.38443 20.0004 10.2344 20.0004C15.8744 20.0004 20.5544 15.0304 20.2244 9.41044ZM15.1244 13.7204C15.0344 13.9004 14.9244 14.0704 14.7844 14.2304C14.5344 14.5004 14.2644 14.7004 13.9644 14.8204C13.6644 14.9504 13.3344 15.0104 12.9844 15.0104C12.4744 15.0104 11.9244 14.8905 11.3544 14.6405C10.7744 14.3905 10.2045 14.0604 9.63445 13.6504C9.05445 13.2304 8.51444 12.7604 7.99444 12.2504C7.47444 11.7304 7.01441 11.1804 6.59441 10.6104C6.18441 10.0404 5.85443 9.47043 5.61443 8.90043C5.37443 8.33043 5.25445 7.78045 5.25445 7.26045C5.25445 6.92044 5.31444 6.59044 5.43444 6.29044C5.55444 5.98044 5.74446 5.70045 6.01446 5.45045C6.33446 5.13045 6.68444 4.98045 7.05444 4.98045C7.19444 4.98045 7.33441 5.01044 7.46441 5.07044C7.59441 5.13044 7.71444 5.22044 7.80444 5.35044L8.96441 6.99043C9.05441 7.12043 9.12442 7.23043 9.16442 7.34043C9.21442 7.45043 9.23443 7.55043 9.23443 7.65043C9.23443 7.77043 9.19444 7.89045 9.12444 8.01045C9.05444 8.13045 8.96441 8.25043 8.84441 8.37043L8.46441 8.77042C8.40441 8.83043 8.38445 8.89044 8.38445 8.97044C8.38445 9.01044 8.39441 9.05043 8.40441 9.09043C8.42441 9.13043 8.43445 9.16044 8.44445 9.19044C8.53445 9.36044 8.69442 9.57042 8.91442 9.83042C9.14442 10.0904 9.38446 10.3604 9.64446 10.6204C9.91446 10.8904 10.1744 11.1304 10.4445 11.3604C10.7045 11.5804 10.9244 11.7304 11.0944 11.8204C11.1244 11.8304 11.1544 11.8504 11.1844 11.8604C11.2244 11.8804 11.2644 11.8804 11.3144 11.8804C11.4044 11.8804 11.4645 11.8504 11.5245 11.7904L11.9044 11.4104C12.0344 11.2804 12.1545 11.1904 12.2645 11.1304C12.3845 11.0604 12.4944 11.0204 12.6244 11.0204C12.7244 11.0204 12.8244 11.0404 12.9344 11.0904C13.0444 11.1404 13.1644 11.2004 13.2844 11.2904L14.9445 12.4704C15.0745 12.5604 15.1644 12.6704 15.2244 12.7904C15.2744 12.9204 15.3044 13.0404 15.3044 13.1804C15.2444 13.3504 15.2044 13.5404 15.1244 13.7204Z"/>
</symbol></svg>